<svg width="100" height="100" viewBox="0 0 100 100" fill="none" xmlns="http://www.w3.org/2000/svg">
<g clip-path="url(#clip0_209_615)">
<path d="M85 2.5H15C8.09644 2.5 2.5 8.09644 2.5 15V85C2.5 91.9036 8.09644 97.5 15 97.5H85C91.9036 97.5 97.5 91.9036 97.5 85V15C97.5 8.09644 91.9036 2.5 85 2.5Z" fill="#FCF8F0"/>
<path d="M85 2.5H15C8.09644 2.5 2.5 8.09644 2.5 15V85C2.5 91.9036 8.09644 97.5 15 97.5H85C91.9036 97.5 97.5 91.9036 97.5 85V15C97.5 8.09644 91.9036 2.5 85 2.5Z" stroke="#D7D7D7" stroke-width="5"/>
<path d="M58.0663 65.7318C57.9383 65.7318 57.7783 65.6838 57.5863 65.5878C57.3943 65.4918 57.2343 65.4118 57.1063 65.3478L40.8823 54.2598C40.4023 53.9398 40.0503 53.6198 39.8263 53.2998C39.6023 52.9798 39.4902 52.5958 39.4902 52.1478V50.9478C39.4902 50.4998 39.6023 50.1158 39.8263 49.7958C40.0503 49.4758 40.4023 49.1558 40.8823 48.8358L57.1063 37.7478C57.2343 37.6838 57.3943 37.6038 57.5863 37.5078C57.7783 37.4118 57.9383 37.3638 58.0663 37.3638C58.3223 37.3638 58.5463 37.4598 58.7383 37.6518C58.9303 37.8118 59.0263 38.0358 59.0263 38.3238V41.9718C59.0263 42.4198 58.9143 42.7718 58.6903 43.0278C58.4663 43.2838 58.1783 43.5078 57.8263 43.6998L46.1623 51.5238L57.8263 59.3958C58.1783 59.6198 58.4663 59.8598 58.6903 60.1158C58.9143 60.3398 59.0263 60.6758 59.0263 61.1238V64.7718C59.0263 65.0598 58.9303 65.2998 58.7383 65.4918C58.5463 65.6518 58.3223 65.7318 58.0663 65.7318Z" fill="#D7D7D7"/>
</g>
<defs>
<clipPath id="clip0_209_615">
<rect width="100" height="100" fill="white"/>
</clipPath>
</defs>
</svg>
