<svg width="100" height="100" viewBox="0 0 100 100" fill="none" xmlns="http://www.w3.org/2000/svg">
<g clip-path="url(#clip0_209_603)">
<path d="M85 2.5H15C8.09644 2.5 2.5 8.09644 2.5 15V85C2.5 91.9036 8.09644 97.5 15 97.5H85C91.9036 97.5 97.5 91.9036 97.5 85V15C97.5 8.09644 91.9036 2.5 85 2.5Z" fill="#FCF8F0"/>
<path d="M85 2.5H15C8.09644 2.5 2.5 8.09644 2.5 15V85C2.5 91.9036 8.09644 97.5 15 97.5H85C91.9036 97.5 97.5 91.9036 97.5 85V15C97.5 8.09644 91.9036 2.5 85 2.5Z" stroke="#D7D7D7" stroke-width="5"/>
<path d="M47.59 47.7001C47.27 47.7001 46.998 47.5881 46.774 47.3641C46.55 47.1401 46.438 46.8681 46.438 46.5481V41.9881C46.438 41.6361 46.55 41.3481 46.774 41.1241C46.998 40.9001 47.27 40.7881 47.59 40.7881H52.342C52.694 40.7881 52.982 40.9001 53.206 41.1241C53.43 41.3481 53.542 41.6361 53.542 41.9881V46.5481C53.542 46.8681 53.43 47.1401 53.206 47.3641C52.982 47.5881 52.694 47.7001 52.342 47.7001H47.59ZM47.59 64.5001C47.27 64.5001 46.998 64.3881 46.774 64.1641C46.55 63.9401 46.438 63.6681 46.438 63.3481V58.7881C46.438 58.4361 46.55 58.1481 46.774 57.9241C46.998 57.7001 47.27 57.5881 47.59 57.5881H52.342C52.694 57.5881 52.982 57.7001 53.206 57.9241C53.43 58.1481 53.542 58.4361 53.542 58.7881V63.3481C53.542 63.6681 53.43 63.9401 53.206 64.1641C52.982 64.3881 52.694 64.5001 52.342 64.5001H47.59Z" fill="#D7D7D7"/>
</g>
<defs>
<clipPath id="clip0_209_603">
<rect width="100" height="100" fill="white"/>
</clipPath>
</defs>
</svg>
