<svg width="100" height="100" viewBox="0 0 100 100" fill="none" xmlns="http://www.w3.org/2000/svg">
<g clip-path="url(#clip0_209_619)">
<path d="M85 2.5H15C8.09644 2.5 2.5 8.09644 2.5 15V85C2.5 91.9036 8.09644 97.5 15 97.5H85C91.9036 97.5 97.5 91.9036 97.5 85V15C97.5 8.09644 91.9036 2.5 85 2.5Z" fill="#FCF8F0"/>
<path d="M85 2.5H15C8.09644 2.5 2.5 8.09644 2.5 15V85C2.5 91.9036 8.09644 97.5 15 97.5H85C91.9036 97.5 97.5 91.9036 97.5 85V15C97.5 8.09644 91.9036 2.5 85 2.5Z" stroke="#D7D7D7" stroke-width="5"/>
<path d="M41.3521 47.472C40.939 47.472 40.6009 47.36 40.338 47.136C40.1127 46.912 40 46.64 40 46.32V43.152C40 42.832 40.1127 42.56 40.338 42.336C40.6009 42.112 40.939 42 41.3521 42H58.6479C59.0235 42 59.3427 42.112 59.6056 42.336C59.8685 42.56 60 42.832 60 43.152V46.32C60 46.64 59.8685 46.912 59.6056 47.136C59.3427 47.36 59.0235 47.472 58.6479 47.472H41.3521Z" fill="#D7D7D7"/>
<path d="M41.3521 57.9442C40.939 57.9442 40.6009 57.8322 40.338 57.6082C40.1127 57.3842 40 57.1122 40 56.7922V53.6242C40 53.3042 40.1127 53.0322 40.338 52.8082C40.6009 52.5842 40.939 52.4722 41.3521 52.4722H58.6479C59.0235 52.4722 59.3427 52.5842 59.6056 52.8082C59.8685 53.0322 60 53.3042 60 53.6242V56.7922C60 57.1122 59.8685 57.3842 59.6056 57.6082C59.3427 57.8322 59.0235 57.9442 58.6479 57.9442H41.3521Z" fill="#D7D7D7"/>
</g>
<defs>
<clipPath id="clip0_209_619">
<rect width="100" height="100" fill="white"/>
</clipPath>
</defs>
</svg>
