<svg width="100" height="100" viewBox="0 0 100 100" fill="none" xmlns="http://www.w3.org/2000/svg">
<g clip-path="url(#clip0_209_607)">
<path d="M85 2.5H15C8.09644 2.5 2.5 8.09644 2.5 15V85C2.5 91.9036 8.09644 97.5 15 97.5H85C91.9036 97.5 97.5 91.9036 97.5 85V15C97.5 8.09644 91.9036 2.5 85 2.5Z" fill="#FCF8F0"/>
<path d="M85 2.5H15C8.09644 2.5 2.5 8.09644 2.5 15V85C2.5 91.9036 8.09644 97.5 15 97.5H85C91.9036 97.5 97.5 91.9036 97.5 85V15C97.5 8.09644 91.9036 2.5 85 2.5Z" stroke="#D7D7D7" stroke-width="5"/>
<path d="M42.6447 54.8358C42.2927 54.8358 42.0047 54.7238 41.7807 54.4998C41.5887 54.2758 41.4927 54.0038 41.4927 53.6838V50.5158C41.4927 50.1958 41.5887 49.9238 41.7807 49.6998C42.0047 49.4758 42.2927 49.3638 42.6447 49.3638H57.3807C57.7007 49.3638 57.9727 49.4758 58.1967 49.6998C58.4207 49.9238 58.5327 50.1958 58.5327 50.5158V53.6838C58.5327 54.0038 58.4207 54.2758 58.1967 54.4998C57.9727 54.7238 57.7007 54.8358 57.3807 54.8358H42.6447Z" fill="#D7D7D7"/>
</g>
<defs>
<clipPath id="clip0_209_607">
<rect width="100" height="100" fill="white"/>
</clipPath>
</defs>
</svg>
