<svg width="100" height="100" viewBox="0 0 100 100" fill="none" xmlns="http://www.w3.org/2000/svg">
<g clip-path="url(#clip0_209_611)">
<path d="M85 2.5H15C8.09644 2.5 2.5 8.09644 2.5 15V85C2.5 91.9036 8.09644 97.5 15 97.5H85C91.9036 97.5 97.5 91.9036 97.5 85V15C97.5 8.09644 91.9036 2.5 85 2.5Z" fill="#FCF8F0"/>
<path d="M85 2.5H15C8.09644 2.5 2.5 8.09644 2.5 15V85C2.5 91.9036 8.09644 97.5 15 97.5H85C91.9036 97.5 97.5 91.9036 97.5 85V15C97.5 8.09644 91.9036 2.5 85 2.5Z" stroke="#D7D7D7" stroke-width="5"/>
<path d="M41.9385 65.7318C41.6825 65.7318 41.4585 65.6518 41.2665 65.4918C41.0745 65.2998 40.9785 65.0438 40.9785 64.7238V61.1238C40.9785 60.6438 41.0905 60.2918 41.3145 60.0678C41.5385 59.8118 41.8265 59.5878 42.1785 59.3958L53.8425 51.5238L42.1785 43.6998C41.8265 43.4758 41.5385 43.2518 41.3145 43.0278C41.0905 42.7718 40.9785 42.4198 40.9785 41.9718V38.3238C40.9785 38.0038 41.0745 37.7638 41.2665 37.6038C41.4585 37.4438 41.6825 37.3638 41.9385 37.3638C42.0985 37.3638 42.2745 37.4118 42.4665 37.5078C42.6585 37.5718 42.8185 37.6518 42.9465 37.7478L59.1225 48.8358C59.6025 49.1558 59.9545 49.4758 60.1785 49.7958C60.4025 50.0838 60.5145 50.4678 60.5145 50.9478V52.0998C60.5145 52.5798 60.4025 52.9798 60.1785 53.2998C59.9545 53.6198 59.6025 53.9398 59.1225 54.2598L42.9465 65.3478C42.8185 65.4118 42.6585 65.4918 42.4665 65.5878C42.2745 65.6838 42.0985 65.7318 41.9385 65.7318Z" fill="#D7D7D7"/>
</g>
<defs>
<clipPath id="clip0_209_611">
<rect width="100" height="100" fill="white"/>
</clipPath>
</defs>
</svg>
