<svg width="100" height="100" viewBox="0 0 100 100" fill="none" xmlns="http://www.w3.org/2000/svg">
<g clip-path="url(#clip0_209_599)">
<path d="M85 2.5H15C8.09644 2.5 2.5 8.09644 2.5 15V85C2.5 91.9036 8.09644 97.5 15 97.5H85C91.9036 97.5 97.5 91.9036 97.5 85V15C97.5 8.09644 91.9036 2.5 85 2.5Z" fill="#FCF8F0"/>
<path d="M85 2.5H15C8.09644 2.5 2.5 8.09644 2.5 15V85C2.5 91.9036 8.09644 97.5 15 97.5H85C91.9036 97.5 97.5 91.9036 97.5 85V15C97.5 8.09644 91.9036 2.5 85 2.5Z" stroke="#D7D7D7" stroke-width="5"/>
<path d="M38.5653 64.5C38.2773 64.5 38.0213 64.404 37.7973 64.212C37.6053 63.988 37.5093 63.732 37.5093 63.444C37.5093 63.348 37.5253 63.236 37.5573 63.108C37.6213 62.98 37.7173 62.82 37.8453 62.628L46.0053 51.684L38.4213 41.412C38.3253 41.252 38.2453 41.108 38.1813 40.98C38.1493 40.852 38.1333 40.724 38.1333 40.596C38.1333 40.308 38.2293 40.068 38.4213 39.876C38.6453 39.652 38.9013 39.54 39.1893 39.54H43.3653C43.7493 39.54 44.0373 39.636 44.2293 39.828C44.4213 40.02 44.5653 40.196 44.6613 40.356L50.0853 47.556L55.5093 40.356C55.6373 40.196 55.7813 40.02 55.9413 39.828C56.1333 39.636 56.4213 39.54 56.8053 39.54H60.7893C61.0773 39.54 61.3173 39.652 61.5093 39.876C61.7333 40.068 61.8453 40.292 61.8453 40.548C61.8453 40.708 61.8133 40.852 61.7493 40.98C61.7173 41.108 61.6533 41.252 61.5573 41.412L53.8773 51.78L62.0853 62.628C62.2133 62.82 62.2933 62.98 62.3253 63.108C62.3893 63.236 62.4213 63.348 62.4213 63.444C62.4213 63.732 62.3093 63.988 62.0853 64.212C61.8933 64.404 61.6533 64.5 61.3653 64.5H56.9973C56.6453 64.5 56.3733 64.42 56.1813 64.26C55.9893 64.068 55.8293 63.892 55.7013 63.732L49.9413 56.1L44.0853 63.732C43.9573 63.892 43.7973 64.068 43.6053 64.26C43.4453 64.42 43.1733 64.5 42.7893 64.5H38.5653Z" fill="#D7D7D7"/>
</g>
<defs>
<clipPath id="clip0_209_599">
<rect width="100" height="100" fill="white"/>
</clipPath>
</defs>
</svg>
