<svg width="100" height="100" viewBox="0 0 100 100" fill="none" xmlns="http://www.w3.org/2000/svg">
<g clip-path="url(#clip0_210_627)">
<path d="M85 2.5H15C8.09644 2.5 2.5 8.09644 2.5 15V85C2.5 91.9036 8.09644 97.5 15 97.5H85C91.9036 97.5 97.5 91.9036 97.5 85V15C97.5 8.09644 91.9036 2.5 85 2.5Z" fill="#FCF8F0"/>
<path d="M85 2.5H15C8.09644 2.5 2.5 8.09644 2.5 15V85C2.5 91.9036 8.09644 97.5 15 97.5H85C91.9036 97.5 97.5 91.9036 97.5 85V15C97.5 8.09644 91.9036 2.5 85 2.5Z" stroke="#D7D7D7" stroke-width="5"/>
<path d="M48.602 64.9162C48.282 64.9162 48.01 64.8042 47.786 64.5802C47.562 64.3562 47.45 64.0842 47.45 63.7642V54.4042H38.234C37.914 54.4042 37.642 54.2922 37.418 54.0682C37.194 53.8442 37.082 53.5722 37.082 53.2522V50.7082C37.082 50.3562 37.194 50.0842 37.418 49.8922C37.642 49.6682 37.914 49.5562 38.234 49.5562H47.45V40.4362C47.45 40.1162 47.562 39.8442 47.786 39.6202C48.01 39.3962 48.282 39.2842 48.602 39.2842H51.386C51.738 39.2842 52.01 39.3962 52.202 39.6202C52.426 39.8442 52.538 40.1162 52.538 40.4362V49.5562H61.754C62.074 49.5562 62.346 49.6682 62.57 49.8922C62.794 50.0842 62.906 50.3562 62.906 50.7082V53.2522C62.906 53.5722 62.794 53.8442 62.57 54.0682C62.346 54.2922 62.074 54.4042 61.754 54.4042H52.538V63.7642C52.538 64.0842 52.426 64.3562 52.202 64.5802C52.01 64.8042 51.738 64.9162 51.386 64.9162H48.602Z" fill="#D7D7D7"/>
</g>
<defs>
<clipPath id="clip0_210_627">
<rect width="100" height="100" fill="white"/>
</clipPath>
</defs>
</svg>
