<svg width="100" height="100" viewBox="0 0 100 100" fill="none" xmlns="http://www.w3.org/2000/svg">
<rect x="2.5" y="2.5" width="95" height="95" rx="12.5" fill="#FCF8F0"/>
<rect x="2.5" y="2.5" width="95" height="95" rx="12.5" stroke="#D7D7D7" stroke-width="5"/>
<path d="M40.6794 48.596C40.3594 48.596 40.0874 48.484 39.8634 48.26C39.6394 48.036 39.5274 47.764 39.5274 47.444V44.756C39.5274 44.436 39.6394 44.164 39.8634 43.94C40.0874 43.716 40.3594 43.604 40.6794 43.604H59.2554C59.6074 43.604 59.8954 43.716 60.1194 43.94C60.3434 44.164 60.4554 44.436 60.4554 44.756V47.444C60.4554 47.764 60.3434 48.036 60.1194 48.26C59.8954 48.484 59.6074 48.596 59.2554 48.596H40.6794ZM40.6794 60.596C40.3594 60.596 40.0874 60.484 39.8634 60.26C39.6394 60.036 39.5274 59.764 39.5274 59.444V56.756C39.5274 56.436 39.6394 56.164 39.8634 55.94C40.0874 55.716 40.3594 55.604 40.6794 55.604H59.2554C59.6074 55.604 59.8954 55.716 60.1194 55.94C60.3434 56.164 60.4554 56.436 60.4554 56.756V59.444C60.4554 59.764 60.3434 60.036 60.1194 60.26C59.8954 60.484 59.6074 60.596 59.2554 60.596H40.6794Z" fill="#D7D7D7"/>
</svg>
