<svg width="50" height="50" viewBox="0 0 50 50" fill="none" xmlns="http://www.w3.org/2000/svg">
<g clip-path="url(#clip0_194_140)">
<path d="M49.5 40V10C49.5 4.75329 45.2467 0.5 40 0.5L10 0.5C4.7533 0.5 0.5 4.75329 0.5 10V40C0.5 45.2467 4.7533 49.5 10 49.5H40C45.2467 49.5 49.5 45.2467 49.5 40Z" fill="white"/>
<path d="M49.5 40V10C49.5 4.75329 45.2467 0.5 40 0.5L10 0.5C4.7533 0.5 0.5 4.75329 0.5 10V40C0.5 45.2467 4.7533 49.5 10 49.5H40C45.2467 49.5 49.5 45.2467 49.5 40Z" stroke="#D7D7D7"/>
<path d="M39.5 35V15C39.5 12.5147 37.4853 10.5 35 10.5L15 10.5C12.5147 10.5 10.5 12.5147 10.5 15V35C10.5 37.4853 12.5147 39.5 15 39.5H35C37.4853 39.5 39.5 37.4853 39.5 35Z" fill="white" stroke="#D7D7D7"/>
</g>
<defs>
<clipPath id="clip0_194_140">
<rect width="50" height="50" fill="white"/>
</clipPath>
</defs>
</svg>
