<svg width="100" height="50" viewBox="0 0 100 50" fill="none" xmlns="http://www.w3.org/2000/svg">
<g clip-path="url(#clip0_194_108)">
<mask id="mask0_194_108" style="mask-type:luminance" maskUnits="userSpaceOnUse" x="0" y="0" width="100" height="50">
<path d="M100 40V10C100 4.47715 95.5228 0 90 0L10 0C4.47715 0 0 4.47715 0 10V40C0 45.5228 4.47715 50 10 50L90 50C95.5228 50 100 45.5228 100 40Z" fill="white"/>
</mask>
<g mask="url(#mask0_194_108)">
<path d="M100 40V10C100 4.47715 95.5228 0 90 0L10 0C4.47715 0 0 4.47715 0 10V40C0 45.5228 4.47715 50 10 50L90 50C95.5228 50 100 45.5228 100 40Z" fill="#15151A"/>
<path d="M89.5 35V15C89.5 12.5147 87.4853 10.5 85 10.5L15 10.5C12.5147 10.5 10.5 12.5147 10.5 15V35C10.5 37.4853 12.5147 39.5 15 39.5H85C87.4853 39.5 89.5 37.4853 89.5 35Z" fill="#15151A" stroke="white"/>
</g>
<path d="M99.5 40V10C99.5 4.75329 95.2467 0.5 90 0.5L10 0.5C4.7533 0.5 0.5 4.75329 0.5 10V40C0.5 45.2467 4.7533 49.5 10 49.5L90 49.5C95.2467 49.5 99.5 45.2467 99.5 40Z" stroke="white"/>
</g>
<defs>
<clipPath id="clip0_194_108">
<rect width="100" height="50" fill="white"/>
</clipPath>
</defs>
</svg>
