<svg width="150" height="50" viewBox="0 0 150 50" fill="none" xmlns="http://www.w3.org/2000/svg">
<g clip-path="url(#clip0_194_116)">
<mask id="mask0_194_116" style="mask-type:luminance" maskUnits="userSpaceOnUse" x="0" y="0" width="150" height="50">
<path d="M150 40V10C150 4.47715 145.523 0 140 0L10 0C4.47716 0 0 4.47715 0 10V40C0 45.5228 4.47716 50 10 50L140 50C145.523 50 150 45.5228 150 40Z" fill="white"/>
</mask>
<g mask="url(#mask0_194_116)">
<path d="M150 40V10C150 4.47715 145.523 0 140 0L10 0C4.47716 0 0 4.47715 0 10V40C0 45.5228 4.47716 50 10 50L140 50C145.523 50 150 45.5228 150 40Z" fill="#F14646"/>
<path d="M139.5 35V15C139.5 12.5147 137.485 10.5 135 10.5L15 10.5C12.5147 10.5 10.5 12.5147 10.5 15V35C10.5 37.4853 12.5147 39.5 15 39.5L135 39.5C137.485 39.5 139.5 37.4853 139.5 35Z" fill="#F14646" stroke="white"/>
</g>
<path d="M149.5 40V10C149.5 4.75329 145.247 0.5 140 0.5L10 0.5C4.7533 0.5 0.5 4.75329 0.5 10V40C0.5 45.2467 4.7533 49.5 10 49.5L140 49.5C145.247 49.5 149.5 45.2467 149.5 40Z" stroke="white"/>
</g>
<defs>
<clipPath id="clip0_194_116">
<rect width="150" height="50" fill="white"/>
</clipPath>
</defs>
</svg>
