<svg width="100" height="100" viewBox="0 0 100 100" fill="none" xmlns="http://www.w3.org/2000/svg">
<rect x="2.5" y="2.5" width="95" height="95" rx="12.5" fill="#FCF8F0"/>
<rect x="2.5" y="2.5" width="95" height="95" rx="12.5" stroke="#D7D7D7" stroke-width="5"/>
<path d="M47.5901 47.7C47.2701 47.7 46.9981 47.588 46.7741 47.364C46.5501 47.14 46.4381 46.868 46.4381 46.548V41.988C46.4381 41.636 46.5501 41.348 46.7741 41.124C46.9981 40.9 47.2701 40.788 47.5901 40.788H52.3421C52.6941 40.788 52.9821 40.9 53.2061 41.124C53.4301 41.348 53.5421 41.636 53.5421 41.988V46.548C53.5421 46.868 53.4301 47.14 53.2061 47.364C52.9821 47.588 52.6941 47.7 52.3421 47.7H47.5901ZM47.5901 64.5C47.2701 64.5 46.9981 64.388 46.7741 64.164C46.5501 63.94 46.4381 63.668 46.4381 63.348V58.788C46.4381 58.436 46.5501 58.148 46.7741 57.924C46.9981 57.7 47.2701 57.588 47.5901 57.588H52.3421C52.6941 57.588 52.9821 57.7 53.2061 57.924C53.4301 58.148 53.5421 58.436 53.5421 58.788V63.348C53.5421 63.668 53.4301 63.94 53.2061 64.164C52.9821 64.388 52.6941 64.5 52.3421 64.5H47.5901Z" fill="#D7D7D7"/>
</svg>
