<svg width="100" height="100" viewBox="0 0 100 100" fill="none" xmlns="http://www.w3.org/2000/svg">
<g clip-path="url(#clip0_200_186)">
<path d="M85 2.5H15C8.09644 2.5 2.5 8.09644 2.5 15V85C2.5 91.9036 8.09644 97.5 15 97.5H85C91.9036 97.5 97.5 91.9036 97.5 85V15C97.5 8.09644 91.9036 2.5 85 2.5Z" fill="#C97D36"/>
<path d="M85 2.5H15C8.09644 2.5 2.5 8.09644 2.5 15V85C2.5 91.9036 8.09644 97.5 15 97.5H85C91.9036 97.5 97.5 91.9036 97.5 85V15C97.5 8.09644 91.9036 2.5 85 2.5Z" fill="#FFBE5E"/>
<path d="M85 2.5H15C8.09644 2.5 2.5 8.09644 2.5 15V85C2.5 91.9036 8.09644 97.5 15 97.5H85C91.9036 97.5 97.5 91.9036 97.5 85V15C97.5 8.09644 91.9036 2.5 85 2.5Z" stroke="white" stroke-width="5"/>
<path d="M39.45 62.4999C39.186 62.4999 38.97 62.4159 38.802 62.2479C38.658 62.0799 38.586 61.8759 38.586 61.6359V42.9879L33.114 47.1999C32.898 47.3439 32.682 47.4039 32.466 47.3799C32.25 47.3319 32.058 47.1999 31.89 46.9839L30.378 45.0399C30.234 44.8239 30.174 44.5959 30.198 44.3559C30.246 44.1159 30.378 43.9239 30.594 43.7799L38.658 37.5519C38.802 37.4319 38.946 37.3599 39.09 37.3359C39.234 37.3119 39.39 37.2999 39.558 37.2999H42.726C42.966 37.2999 43.17 37.3839 43.338 37.5519C43.506 37.7199 43.59 37.9239 43.59 38.1639V61.6359C43.59 61.8759 43.506 62.0799 43.338 62.2479C43.17 62.4159 42.966 62.4999 42.726 62.4999H39.45ZM58.6701 62.8599C56.9661 62.8599 55.5141 62.6079 54.3141 62.1039C53.1141 61.5999 52.1301 60.9039 51.3621 60.0159C50.5941 59.1279 50.0181 58.1079 49.6341 56.9559C49.2501 55.7799 49.0221 54.5319 48.9501 53.2119C48.9261 52.5639 48.9021 51.8559 48.8781 51.0879C48.8781 50.2959 48.8781 49.5039 48.8781 48.7119C48.9021 47.9199 48.9261 47.1879 48.9501 46.5159C48.9981 45.1959 49.2261 43.9599 49.6341 42.8079C50.0421 41.6319 50.6301 40.6119 51.3981 39.7479C52.1901 38.8839 53.1861 38.1999 54.3861 37.6959C55.5861 37.1919 57.0141 36.9399 58.6701 36.9399C60.3501 36.9399 61.7901 37.1919 62.9901 37.6959C64.1901 38.1999 65.1741 38.8839 65.9421 39.7479C66.7341 40.6119 67.3221 41.6319 67.7061 42.8079C68.1141 43.9599 68.3421 45.1959 68.3901 46.5159C68.4381 47.1879 68.4621 47.9199 68.4621 48.7119C68.4621 49.5039 68.4621 50.2959 68.4621 51.0879C68.4621 51.8559 68.4381 52.5639 68.3901 53.2119C68.3421 54.5319 68.1261 55.7799 67.7421 56.9559C67.3581 58.1079 66.7821 59.1279 66.0141 60.0159C65.2461 60.9039 64.2501 61.5999 63.0261 62.1039C61.8261 62.6079 60.3741 62.8599 58.6701 62.8599ZM58.6701 58.7199C60.2301 58.7199 61.3701 58.2159 62.0901 57.2079C62.8341 56.1759 63.2181 54.7839 63.2421 53.0319C63.2901 52.3359 63.3141 51.6399 63.3141 50.9439C63.3141 50.2239 63.3141 49.5039 63.3141 48.7839C63.3141 48.0639 63.2901 47.3799 63.2421 46.7319C63.2181 45.0279 62.8341 43.6599 62.0901 42.6279C61.3701 41.5719 60.2301 41.0439 58.6701 41.0439C57.1341 41.0439 55.9941 41.5719 55.2501 42.6279C54.5301 43.6599 54.1461 45.0279 54.0981 46.7319C54.0981 47.3799 54.0861 48.0639 54.0621 48.7839C54.0621 49.5039 54.0621 50.2239 54.0621 50.9439C54.0861 51.6399 54.0981 52.3359 54.0981 53.0319C54.1461 54.7839 54.5421 56.1759 55.2861 57.2079C56.0301 58.2159 57.1581 58.7199 58.6701 58.7199Z" fill="#FDFFFF"/>
</g>
<defs>
<clipPath id="clip0_200_186">
<rect width="100" height="100" fill="white"/>
</clipPath>
</defs>
</svg>
