<svg width="100" height="100" viewBox="0 0 100 100" fill="none" xmlns="http://www.w3.org/2000/svg">
<g clip-path="url(#clip0_200_191)">
<path d="M85 2.5H15C8.09644 2.5 2.5 8.09644 2.5 15V85C2.5 91.9036 8.09644 97.5 15 97.5H85C91.9036 97.5 97.5 91.9036 97.5 85V15C97.5 8.09644 91.9036 2.5 85 2.5Z" fill="white"/>
<path d="M85 2.5H15C8.09644 2.5 2.5 8.09644 2.5 15V85C2.5 91.9036 8.09644 97.5 15 97.5H85C91.9036 97.5 97.5 91.9036 97.5 85V15C97.5 8.09644 91.9036 2.5 85 2.5Z" stroke="#D7D7D7" stroke-width="5"/>
<path d="M51.64 62.5C51.376 62.5 51.16 62.4161 50.992 62.2481C50.848 62.0801 50.776 61.8761 50.776 61.6361V42.988L45.304 47.2001C45.088 47.3441 44.872 47.4041 44.656 47.3801C44.44 47.3321 44.248 47.2001 44.08 46.9841L42.568 45.0401C42.424 44.8241 42.364 44.596 42.388 44.356C42.436 44.116 42.568 43.924 42.784 43.78L50.848 37.552C50.992 37.432 51.136 37.36 51.28 37.336C51.424 37.312 51.58 37.3 51.748 37.3H54.916C55.156 37.3 55.36 37.384 55.528 37.552C55.696 37.72 55.78 37.9241 55.78 38.1641V61.6361C55.78 61.8761 55.696 62.0801 55.528 62.2481C55.36 62.4161 55.156 62.5 54.916 62.5H51.64Z" fill="#D7D7D7"/>
</g>
<defs>
<clipPath id="clip0_200_191">
<rect width="100" height="100" fill="white"/>
</clipPath>
</defs>
</svg>
