<svg width="100" height="100" viewBox="0 0 100 100" fill="none" xmlns="http://www.w3.org/2000/svg">
<g clip-path="url(#clip0_200_195)">
<path d="M85 2.5H15C8.09644 2.5 2.5 8.09644 2.5 15V85C2.5 91.9036 8.09644 97.5 15 97.5H85C91.9036 97.5 97.5 91.9036 97.5 85V15C97.5 8.09644 91.9036 2.5 85 2.5Z" fill="#15151A"/>
<path d="M85 2.5H15C8.09644 2.5 2.5 8.09644 2.5 15V85C2.5 91.9036 8.09644 97.5 15 97.5H85C91.9036 97.5 97.5 91.9036 97.5 85V15C97.5 8.09644 91.9036 2.5 85 2.5Z" stroke="white" stroke-width="5"/>
<path d="M41.3396 62.5C41.0996 62.5 40.8956 62.416 40.7276 62.248C40.5596 62.08 40.4756 61.876 40.4756 61.636V59.8C40.4756 59.584 40.5236 59.332 40.6196 59.044C40.7396 58.732 40.9916 58.42 41.3756 58.108L47.0636 52.456C48.6476 51.208 49.9196 50.152 50.8796 49.288C51.8636 48.4 52.5716 47.596 53.0036 46.876C53.4596 46.132 53.6876 45.4 53.6876 44.68C53.6876 43.6 53.3876 42.724 52.7876 42.052C52.2116 41.38 51.2876 41.044 50.0156 41.044C49.1756 41.044 48.4676 41.224 47.8916 41.584C47.3156 41.92 46.8596 42.376 46.5236 42.952C46.2116 43.528 45.9956 44.164 45.8756 44.86C45.8276 45.172 45.6956 45.388 45.4796 45.508C45.2636 45.628 45.0476 45.688 44.8316 45.688H41.6276C41.4116 45.688 41.2316 45.616 41.0876 45.472C40.9436 45.328 40.8716 45.16 40.8716 44.968C40.8956 43.936 41.1116 42.94 41.5196 41.98C41.9276 40.996 42.5156 40.132 43.2836 39.388C44.0756 38.62 45.0356 38.008 46.1636 37.552C47.2916 37.096 48.5636 36.868 49.9796 36.868C51.9716 36.868 53.6156 37.204 54.9116 37.876C56.2316 38.548 57.2156 39.46 57.8636 40.612C58.5356 41.764 58.8716 43.06 58.8716 44.5C58.8716 45.628 58.6556 46.672 58.2236 47.632C57.7916 48.568 57.1676 49.48 56.3516 50.368C55.5356 51.232 54.5516 52.12 53.3996 53.032L48.2876 58.216H58.5476C58.8116 58.216 59.0156 58.3 59.1596 58.468C59.3276 58.612 59.4116 58.816 59.4116 59.08V61.636C59.4116 61.876 59.3276 62.08 59.1596 62.248C59.0156 62.416 58.8116 62.5 58.5476 62.5H41.3396Z" fill="#FDFFFF"/>
</g>
<defs>
<clipPath id="clip0_200_195">
<rect width="100" height="100" fill="white"/>
</clipPath>
</defs>
</svg>
