<svg width="100" height="100" viewBox="0 0 100 100" fill="none" xmlns="http://www.w3.org/2000/svg">
<g clip-path="url(#clip0_200_199)">
<path d="M85 2.5H15C8.09644 2.5 2.5 8.09644 2.5 15V85C2.5 91.9036 8.09644 97.5 15 97.5H85C91.9036 97.5 97.5 91.9036 97.5 85V15C97.5 8.09644 91.9036 2.5 85 2.5Z" fill="#F14646"/>
<path d="M85 2.5H15C8.09644 2.5 2.5 8.09644 2.5 15V85C2.5 91.9036 8.09644 97.5 15 97.5H85C91.9036 97.5 97.5 91.9036 97.5 85V15C97.5 8.09644 91.9036 2.5 85 2.5Z" stroke="white" stroke-width="5"/>
<path d="M49.8581 62.8601C48.1781 62.8601 46.7261 62.6561 45.5021 62.2481C44.2781 61.8401 43.2581 61.3121 42.4421 60.6641C41.6501 59.9921 41.0501 59.2721 40.6421 58.5041C40.2341 57.7121 40.0181 56.9321 39.9941 56.1641C39.9941 55.9481 40.0661 55.78 40.2101 55.66C40.3781 55.516 40.5701 55.444 40.7861 55.444H44.0261C44.2661 55.444 44.4701 55.4921 44.6381 55.5881C44.8061 55.6841 44.9501 55.8761 45.0701 56.1641C45.2861 56.8121 45.6341 57.3281 46.1141 57.7121C46.6181 58.0961 47.1941 58.3721 47.8421 58.5401C48.4901 58.6841 49.1741 58.7561 49.8941 58.7561C51.3341 58.7561 52.4741 58.4201 53.3141 57.7481C54.1781 57.0521 54.6101 56.0681 54.6101 54.7961C54.6101 53.5241 54.2141 52.6121 53.4221 52.0601C52.6301 51.4841 51.5261 51.196 50.1101 51.196H46.4021C46.1381 51.196 45.9221 51.124 45.7541 50.98C45.5861 50.812 45.5021 50.5961 45.5021 50.3321V48.82C45.5021 48.58 45.5501 48.376 45.6461 48.208C45.7661 48.016 45.8861 47.8601 46.0061 47.7401L52.4501 41.44H42.1541C41.8901 41.44 41.6741 41.356 41.5061 41.188C41.3621 41.02 41.2901 40.816 41.2901 40.576V38.2001C41.2901 37.9361 41.3621 37.72 41.5061 37.552C41.6741 37.384 41.8901 37.3 42.1541 37.3H57.5981C57.8621 37.3 58.0781 37.384 58.2461 37.552C58.4141 37.72 58.4981 37.9361 58.4981 38.2001V40.3601C58.4981 40.5761 58.4501 40.7681 58.3541 40.9361C58.2581 41.1041 58.1501 41.248 58.0301 41.368L51.8021 47.7761L52.2341 47.812C53.6981 47.932 54.9941 48.268 56.1221 48.82C57.2741 49.348 58.1621 50.128 58.7861 51.16C59.4341 52.192 59.7581 53.488 59.7581 55.048C59.7581 56.68 59.3261 58.084 58.4621 59.26C57.6221 60.412 56.4581 61.3 54.9701 61.924C53.4821 62.548 51.7781 62.8601 49.8581 62.8601Z" fill="#FDFFFF"/>
</g>
<defs>
<clipPath id="clip0_200_199">
<rect width="100" height="100" fill="white"/>
</clipPath>
</defs>
</svg>
