<svg width="100" height="100" viewBox="0 0 100 100" fill="none" xmlns="http://www.w3.org/2000/svg">
<g clip-path="url(#clip0_200_203)">
<path d="M85 2.5H15C8.09644 2.5 2.5 8.09644 2.5 15V85C2.5 91.9036 8.09644 97.5 15 97.5H85C91.9036 97.5 97.5 91.9036 97.5 85V15C97.5 8.09644 91.9036 2.5 85 2.5Z" fill="#FFEE57"/>
<path d="M85 2.5H15C8.09644 2.5 2.5 8.09644 2.5 15V85C2.5 91.9036 8.09644 97.5 15 97.5H85C91.9036 97.5 97.5 91.9036 97.5 85V15C97.5 8.09644 91.9036 2.5 85 2.5Z" stroke="white" stroke-width="5"/>
<path d="M52.4779 62.5C52.2379 62.5 52.0339 62.4161 51.8659 62.2481C51.6979 62.0801 51.6139 61.8761 51.6139 61.6361V57.028H40.2019C39.9379 57.028 39.7219 56.9441 39.5539 56.7761C39.4099 56.6081 39.3379 56.4041 39.3379 56.1641V53.716C39.3379 53.572 39.3619 53.4041 39.4099 53.2121C39.4819 52.9961 39.5899 52.8041 39.7339 52.6361L50.3539 37.912C50.6659 37.504 51.1099 37.3 51.6859 37.3H55.6099C55.8499 37.3 56.0539 37.384 56.2219 37.552C56.3899 37.72 56.4739 37.9241 56.4739 38.1641V52.78H59.6779C59.9659 52.78 60.1819 52.8641 60.3259 53.0321C60.4939 53.1761 60.5779 53.3801 60.5779 53.6441V56.1641C60.5779 56.4041 60.4939 56.6081 60.3259 56.7761C60.1579 56.9441 59.9539 57.028 59.7139 57.028H56.4739V61.6361C56.4739 61.8761 56.3899 62.0801 56.2219 62.2481C56.0539 62.4161 55.8499 62.5 55.6099 62.5H52.4779ZM44.3419 52.924H51.7219V42.5201L44.3419 52.924Z" fill="#FDFFFF"/>
</g>
<defs>
<clipPath id="clip0_200_203">
<rect width="100" height="100" fill="white"/>
</clipPath>
</defs>
</svg>
