<svg width="100" height="100" viewBox="0 0 100 100" fill="none" xmlns="http://www.w3.org/2000/svg">
<g clip-path="url(#clip0_200_207)">
<path d="M85 2.5H15C8.09644 2.5 2.5 8.09644 2.5 15V85C2.5 91.9036 8.09644 97.5 15 97.5H85C91.9036 97.5 97.5 91.9036 97.5 85V15C97.5 8.09644 91.9036 2.5 85 2.5Z" fill="#7AC7FF"/>
<path d="M85 2.5H15C8.09644 2.5 2.5 8.09644 2.5 15V85C2.5 91.9036 8.09644 97.5 15 97.5H85C91.9036 97.5 97.5 91.9036 97.5 85V15C97.5 8.09644 91.9036 2.5 85 2.5Z" stroke="white" stroke-width="5"/>
<path d="M49.854 62.896C47.79 62.896 46.05 62.5601 44.634 61.8881C43.218 61.1921 42.138 60.292 41.394 59.188C40.674 58.084 40.29 56.908 40.242 55.66C40.218 55.444 40.278 55.276 40.422 55.156C40.59 55.012 40.782 54.94 40.998 54.94H44.346C44.61 54.94 44.826 55 44.994 55.12C45.186 55.216 45.33 55.396 45.426 55.66C45.666 56.38 46.002 56.968 46.434 57.424C46.89 57.88 47.406 58.216 47.982 58.432C48.582 58.648 49.206 58.7561 49.854 58.7561C50.718 58.7561 51.498 58.588 52.194 58.252C52.914 57.892 53.49 57.364 53.922 56.668C54.354 55.972 54.57 55.12 54.57 54.112C54.57 53.224 54.366 52.456 53.958 51.808C53.55 51.16 52.986 50.6561 52.266 50.2961C51.57 49.9121 50.766 49.7201 49.854 49.7201C49.182 49.7201 48.63 49.804 48.198 49.972C47.766 50.14 47.394 50.332 47.082 50.548C46.794 50.764 46.53 50.9561 46.29 51.1241C46.074 51.2921 45.822 51.376 45.534 51.376H42.222C42.006 51.376 41.814 51.304 41.646 51.16C41.502 50.992 41.43 50.8 41.43 50.584L42.69 38.272C42.714 37.96 42.822 37.72 43.014 37.552C43.206 37.384 43.434 37.3 43.698 37.3H57.234C57.474 37.3 57.678 37.384 57.846 37.552C58.014 37.72 58.098 37.9241 58.098 38.1641V40.576C58.098 40.816 58.014 41.02 57.846 41.188C57.678 41.356 57.474 41.44 57.234 41.44H46.83L46.254 47.308C46.686 47.02 47.262 46.744 47.982 46.48C48.702 46.216 49.698 46.084 50.97 46.084C52.122 46.084 53.214 46.276 54.246 46.66C55.302 47.02 56.238 47.56 57.054 48.28C57.87 48.976 58.506 49.828 58.962 50.836C59.442 51.82 59.682 52.9481 59.682 54.2201C59.682 55.9721 59.274 57.496 58.458 58.792C57.642 60.088 56.502 61.0961 55.038 61.8161C53.574 62.5361 51.846 62.896 49.854 62.896Z" fill="#FDFFFF"/>
</g>
<defs>
<clipPath id="clip0_200_207">
<rect width="100" height="100" fill="white"/>
</clipPath>
</defs>
</svg>
