<svg width="100" height="100" viewBox="0 0 100 100" fill="none" xmlns="http://www.w3.org/2000/svg">
<g clip-path="url(#clip0_200_211)">
<path d="M85 2.5H15C8.09644 2.5 2.5 8.09644 2.5 15V85C2.5 91.9036 8.09644 97.5 15 97.5H85C91.9036 97.5 97.5 91.9036 97.5 85V15C97.5 8.09644 91.9036 2.5 85 2.5Z" fill="#42FF60"/>
<path d="M85 2.5H15C8.09644 2.5 2.5 8.09644 2.5 15V85C2.5 91.9036 8.09644 97.5 15 97.5H85C91.9036 97.5 97.5 91.9036 97.5 85V15C97.5 8.09644 91.9036 2.5 85 2.5Z" stroke="white" stroke-width="5"/>
<path d="M50.1989 62.8601C48.1349 62.8601 46.3589 62.476 44.8709 61.708C43.3829 60.916 42.2309 59.8601 41.4149 58.5401C40.5989 57.1961 40.1909 55.6961 40.1909 54.0401C40.1909 53.2961 40.2869 52.5761 40.4789 51.8801C40.6709 51.1841 40.9229 50.5241 41.2349 49.9001C41.5469 49.2761 41.8469 48.724 42.1349 48.244C42.4469 47.74 42.7229 47.344 42.9629 47.056L49.5509 38.0201C49.6469 37.9001 49.7909 37.7561 49.9829 37.5881C50.1749 37.3961 50.4389 37.3 50.7749 37.3H54.1229C54.3389 37.3 54.5189 37.384 54.6629 37.552C54.8069 37.696 54.8789 37.876 54.8789 38.092C54.8789 38.188 54.8549 38.2841 54.8069 38.3801C54.7829 38.4521 54.7469 38.5121 54.6989 38.5601L49.6589 45.544C49.8749 45.472 50.1269 45.4241 50.4149 45.4001C50.7029 45.3761 50.9669 45.364 51.2069 45.364C52.4069 45.388 53.5469 45.628 54.6269 46.084C55.7069 46.516 56.6549 47.116 57.4709 47.884C58.2869 48.652 58.9229 49.552 59.3789 50.584C59.8589 51.616 60.0989 52.744 60.0989 53.968C60.0989 55.552 59.7029 57.028 58.9109 58.396C58.1189 59.74 56.9789 60.8201 55.4909 61.6361C54.0269 62.4521 52.2629 62.8601 50.1989 62.8601ZM50.1629 58.7201C51.0269 58.7201 51.8189 58.54 52.5389 58.18C53.2829 57.82 53.8829 57.2921 54.3389 56.5961C54.7949 55.9001 55.0229 55.0361 55.0229 54.0041C55.0229 52.9961 54.7949 52.1441 54.3389 51.4481C53.8829 50.7521 53.2829 50.224 52.5389 49.864C51.8189 49.504 51.0269 49.3241 50.1629 49.3241C49.2989 49.3241 48.4949 49.504 47.7509 49.864C47.0309 50.224 46.4429 50.7521 45.9869 51.4481C45.5309 52.1441 45.3029 52.9961 45.3029 54.0041C45.3029 55.0361 45.5309 55.9001 45.9869 56.5961C46.4429 57.2921 47.0309 57.82 47.7509 58.18C48.4949 58.54 49.2989 58.7201 50.1629 58.7201Z" fill="#FDFFFF"/>
</g>
<defs>
<clipPath id="clip0_200_211">
<rect width="100" height="100" fill="white"/>
</clipPath>
</defs>
</svg>
