<svg width="100" height="100" viewBox="0 0 100 100" fill="none" xmlns="http://www.w3.org/2000/svg">
<g clip-path="url(#clip0_200_171)">
<path d="M85 2.5H15C8.09644 2.5 2.5 8.09644 2.5 15V85C2.5 91.9036 8.09644 97.5 15 97.5H85C91.9036 97.5 97.5 91.9036 97.5 85V15C97.5 8.09644 91.9036 2.5 85 2.5Z" fill="#C97D36"/>
<path d="M85 2.5H15C8.09644 2.5 2.5 8.09644 2.5 15V85C2.5 91.9036 8.09644 97.5 15 97.5H85C91.9036 97.5 97.5 91.9036 97.5 85V15C97.5 8.09644 91.9036 2.5 85 2.5Z" fill="#D55EFF"/>
<path d="M85 2.5H15C8.09644 2.5 2.5 8.09644 2.5 15V85C2.5 91.9036 8.09644 97.5 15 97.5H85C91.9036 97.5 97.5 91.9036 97.5 85V15C97.5 8.09644 91.9036 2.5 85 2.5Z" stroke="white" stroke-width="5"/>
<path d="M45.4465 62.5C45.2305 62.5 45.0505 62.428 44.9065 62.284C44.7625 62.116 44.6905 61.924 44.6905 61.708C44.6905 61.612 44.7145 61.504 44.7625 61.384L53.4385 41.584H42.1345C41.8705 41.584 41.6545 41.5001 41.4865 41.3321C41.3425 41.1641 41.2705 40.9601 41.2705 40.7201V38.2001C41.2705 37.9361 41.3425 37.72 41.4865 37.552C41.6545 37.384 41.8705 37.3 42.1345 37.3H57.9385C58.2025 37.3 58.4065 37.384 58.5505 37.552C58.7185 37.72 58.8025 37.9361 58.8025 38.2001V40.432C58.8025 40.768 58.7665 41.0561 58.6945 41.2961C58.6465 41.5121 58.5745 41.74 58.4785 41.98L49.8745 61.6361C49.8025 61.8041 49.6705 61.9961 49.4785 62.2121C49.3105 62.4041 49.0585 62.5 48.7225 62.5H45.4465Z" fill="#FDFFFF"/>
</g>
<defs>
<clipPath id="clip0_200_171">
<rect width="100" height="100" fill="white"/>
</clipPath>
</defs>
</svg>
