<svg width="100" height="100" viewBox="0 0 100 100" fill="none" xmlns="http://www.w3.org/2000/svg">
<g clip-path="url(#clip0_200_176)">
<path d="M85 2.5H15C8.09644 2.5 2.5 8.09644 2.5 15V85C2.5 91.9036 8.09644 97.5 15 97.5H85C91.9036 97.5 97.5 91.9036 97.5 85V15C97.5 8.09644 91.9036 2.5 85 2.5Z" fill="#C97D36"/>
<path d="M85 2.5H15C8.09644 2.5 2.5 8.09644 2.5 15V85C2.5 91.9036 8.09644 97.5 15 97.5H85C91.9036 97.5 97.5 91.9036 97.5 85V15C97.5 8.09644 91.9036 2.5 85 2.5Z" fill="#C97D36"/>
<path d="M85 2.5H15C8.09644 2.5 2.5 8.09644 2.5 15V85C2.5 91.9036 8.09644 97.5 15 97.5H85C91.9036 97.5 97.5 91.9036 97.5 85V15C97.5 8.09644 91.9036 2.5 85 2.5Z" stroke="white" stroke-width="5"/>
<path d="M49.9953 62.8599C48.4113 62.8599 46.9953 62.6679 45.7473 62.2839C44.4993 61.8999 43.4433 61.3599 42.5793 60.6639C41.7393 59.9679 41.0913 59.1519 40.6353 58.2159C40.2033 57.2799 39.9873 56.2359 39.9873 55.0839C39.9873 53.6919 40.3233 52.4919 40.9953 51.4839C41.6913 50.4519 42.5913 49.6599 43.6953 49.1079C42.8073 48.5559 42.1113 47.8479 41.6073 46.9839C41.1273 46.1199 40.8873 45.1119 40.8873 43.9599C40.8873 42.5679 41.2353 41.3559 41.9313 40.3239C42.6513 39.2679 43.6833 38.4399 45.0273 37.8399C46.3953 37.2399 48.0513 36.9399 49.9953 36.9399C51.9393 36.9399 53.5833 37.2399 54.9273 37.8399C56.2713 38.4159 57.2913 39.2319 57.9873 40.2879C58.6833 41.3199 59.0313 42.5319 59.0313 43.9239C59.0313 45.0759 58.7913 46.0839 58.3113 46.9479C57.8313 47.8119 57.1593 48.5319 56.2953 49.1079C57.4233 49.6359 58.3233 50.4279 58.9953 51.4839C59.6673 52.5159 60.0033 53.7279 60.0033 55.1199C60.0033 56.6319 59.6073 57.9759 58.8153 59.1519C58.0473 60.3039 56.9073 61.2159 55.3953 61.8879C53.9073 62.5359 52.1073 62.8599 49.9953 62.8599ZM49.9953 59.1159C50.9313 59.1159 51.7713 58.9599 52.5153 58.6479C53.2833 58.3119 53.8833 57.8439 54.3153 57.2439C54.7713 56.6439 54.9993 55.9359 54.9993 55.1199C54.9993 54.2799 54.7713 53.5719 54.3153 52.9959C53.8833 52.3959 53.2833 51.9399 52.5153 51.6279C51.7713 51.2919 50.9313 51.1239 49.9953 51.1239C49.0593 51.1239 48.2073 51.2919 47.4393 51.6279C46.6953 51.9399 46.0953 52.3959 45.6393 52.9959C45.2073 53.5719 44.9913 54.2799 44.9913 55.1199C44.9913 55.9359 45.2073 56.6439 45.6393 57.2439C46.0953 57.8439 46.6953 58.3119 47.4393 58.6479C48.2073 58.9599 49.0593 59.1159 49.9953 59.1159ZM49.9953 47.5599C50.7873 47.5359 51.5073 47.3799 52.1553 47.0919C52.8273 46.8039 53.3553 46.4199 53.7393 45.9399C54.1473 45.4359 54.3513 44.8359 54.3513 44.1399C54.3513 43.4439 54.1593 42.8439 53.7753 42.3399C53.4153 41.8119 52.8993 41.4039 52.2273 41.1159C51.5793 40.8279 50.8353 40.6839 49.9953 40.6839C49.1553 40.6839 48.3993 40.8279 47.7273 41.1159C47.0793 41.4039 46.5633 41.8119 46.1793 42.3399C45.8193 42.8439 45.6393 43.4439 45.6393 44.1399C45.6393 44.8359 45.8193 45.4359 46.1793 45.9399C46.5633 46.4439 47.0793 46.8399 47.7273 47.1279C48.3993 47.4159 49.1553 47.5599 49.9953 47.5599Z" fill="#FDFFFF"/>
</g>
<defs>
<clipPath id="clip0_200_176">
<rect width="100" height="100" fill="white"/>
</clipPath>
</defs>
</svg>
