<svg width="100" height="100" viewBox="0 0 100 100" fill="none" xmlns="http://www.w3.org/2000/svg">
<g clip-path="url(#clip0_200_181)">
<path d="M85 2.5H15C8.09644 2.5 2.5 8.09644 2.5 15V85C2.5 91.9036 8.09644 97.5 15 97.5H85C91.9036 97.5 97.5 91.9036 97.5 85V15C97.5 8.09644 91.9036 2.5 85 2.5Z" fill="#C97D36"/>
<path d="M85 2.5H15C8.09644 2.5 2.5 8.09644 2.5 15V85C2.5 91.9036 8.09644 97.5 15 97.5H85C91.9036 97.5 97.5 91.9036 97.5 85V15C97.5 8.09644 91.9036 2.5 85 2.5Z" fill="#FF9BBF"/>
<path d="M85 2.5H15C8.09644 2.5 2.5 8.09644 2.5 15V85C2.5 91.9036 8.09644 97.5 15 97.5H85C91.9036 97.5 97.5 91.9036 97.5 85V15C97.5 8.09644 91.9036 2.5 85 2.5Z" stroke="white" stroke-width="5"/>
<path d="M45.5146 62.4999C45.2986 62.4999 45.1186 62.4279 44.9746 62.2839C44.8306 62.1159 44.7586 61.9239 44.7586 61.7079C44.7586 61.5879 44.7706 61.4919 44.7946 61.4199C44.8426 61.3479 44.8786 61.2879 44.9026 61.2399L50.1946 53.9319C49.7146 54.0519 49.2106 54.0999 48.6826 54.0759C47.4826 54.0519 46.3546 53.8239 45.2986 53.3919C44.2666 52.9359 43.3546 52.3359 42.5626 51.5919C41.7946 50.8239 41.1826 49.9479 40.7266 48.9639C40.2946 47.9559 40.0786 46.8639 40.0786 45.6879C40.0786 44.6079 40.2826 43.5519 40.6906 42.5199C41.0986 41.4639 41.6986 40.5159 42.4906 39.6759C43.3066 38.8359 44.3146 38.1759 45.5146 37.6959C46.7386 37.1919 48.1666 36.9399 49.7986 36.9399C51.4066 36.9399 52.8226 37.1679 54.0466 37.6239C55.2706 38.0799 56.2906 38.7159 57.1066 39.5319C57.9466 40.3239 58.5706 41.2359 58.9786 42.2679C59.4106 43.2999 59.6266 44.3919 59.6266 45.5439C59.6266 46.5759 59.4586 47.5359 59.1226 48.4239C58.7866 49.3119 58.3666 50.1279 57.8626 50.8719C57.3826 51.5919 56.9026 52.2999 56.4226 52.9959L50.0866 61.7799C49.9906 61.8999 49.8466 62.0559 49.6546 62.2479C49.4866 62.4159 49.2226 62.4999 48.8626 62.4999H45.5146ZM49.8346 50.2599C50.6986 50.2599 51.4786 50.0799 52.1746 49.7199C52.8946 49.3359 53.4586 48.8079 53.8666 48.1359C54.2986 47.4399 54.5146 46.6239 54.5146 45.6879C54.5146 44.7279 54.2986 43.9119 53.8666 43.2399C53.4586 42.5439 52.8946 42.0159 52.1746 41.6559C51.4546 41.2719 50.6746 41.0799 49.8346 41.0799C48.9706 41.0799 48.1786 41.2719 47.4586 41.6559C46.7626 42.0159 46.1986 42.5439 45.7666 43.2399C45.3586 43.9119 45.1546 44.7279 45.1546 45.6879C45.1546 46.6239 45.3586 47.4399 45.7666 48.1359C46.1986 48.8079 46.7626 49.3359 47.4586 49.7199C48.1786 50.0799 48.9706 50.2599 49.8346 50.2599Z" fill="#FDFFFF"/>
</g>
<defs>
<clipPath id="clip0_200_181">
<rect width="100" height="100" fill="white"/>
</clipPath>
</defs>
</svg>
