<svg width="100" height="100" viewBox="0 0 100 100" fill="none" xmlns="http://www.w3.org/2000/svg">
<rect x="2.5" y="2.5" width="95" height="95" rx="12.5" fill="#FCF8F0"/>
<rect x="2.5" y="2.5" width="95" height="95" rx="12.5" stroke="#D7D7D7" stroke-width="5"/>
<path d="M42.6448 54.836C42.2928 54.836 42.0048 54.724 41.7808 54.5C41.5888 54.276 41.4928 54.004 41.4928 53.684V50.516C41.4928 50.196 41.5888 49.924 41.7808 49.7C42.0048 49.476 42.2928 49.364 42.6448 49.364H57.3808C57.7008 49.364 57.9728 49.476 58.1968 49.7C58.4208 49.924 58.5328 50.196 58.5328 50.516V53.684C58.5328 54.004 58.4208 54.276 58.1968 54.5C57.9728 54.724 57.7008 54.836 57.3808 54.836H42.6448Z" fill="#D7D7D7"/>
</svg>
