<svg width="100" height="100" viewBox="0 0 100 100" fill="none" xmlns="http://www.w3.org/2000/svg">
<rect x="2.5" y="2.5" width="95" height="95" rx="12.5" fill="#FCF8F0"/>
<rect x="2.5" y="2.5" width="95" height="95" rx="12.5" stroke="#D7D7D7" stroke-width="5"/>
<path d="M41.9383 65.732C41.6823 65.732 41.4583 65.652 41.2663 65.492C41.0743 65.3 40.9783 65.044 40.9783 64.724V61.124C40.9783 60.644 41.0903 60.292 41.3143 60.068C41.5383 59.812 41.8263 59.588 42.1783 59.396L53.8423 51.524L42.1783 43.7C41.8263 43.476 41.5383 43.252 41.3143 43.028C41.0903 42.772 40.9783 42.42 40.9783 41.972V38.324C40.9783 38.004 41.0743 37.764 41.2663 37.604C41.4583 37.444 41.6823 37.364 41.9383 37.364C42.0983 37.364 42.2743 37.412 42.4663 37.508C42.6583 37.572 42.8183 37.652 42.9463 37.748L59.1223 48.836C59.6023 49.156 59.9543 49.476 60.1783 49.796C60.4023 50.084 60.5143 50.468 60.5143 50.948V52.1C60.5143 52.58 60.4023 52.98 60.1783 53.3C59.9543 53.62 59.6023 53.94 59.1223 54.26L42.9463 65.348C42.8183 65.412 42.6583 65.492 42.4663 65.588C42.2743 65.684 42.0983 65.732 41.9383 65.732Z" fill="#D7D7D7"/>
</svg>
