<svg width="100" height="100" viewBox="0 0 100 100" fill="none" xmlns="http://www.w3.org/2000/svg">
<rect x="2.5" y="2.5" width="95" height="95" rx="12.5" fill="#FCF8F0"/>
<rect x="2.5" y="2.5" width="95" height="95" rx="12.5" stroke="#D7D7D7" stroke-width="5"/>
<path d="M58.0663 65.732C57.9383 65.732 57.7783 65.684 57.5863 65.588C57.3943 65.492 57.2343 65.412 57.1063 65.348L40.8823 54.26C40.4023 53.94 40.0503 53.62 39.8263 53.3C39.6023 52.98 39.4902 52.596 39.4902 52.148V50.948C39.4902 50.5 39.6023 50.116 39.8263 49.796C40.0503 49.476 40.4023 49.156 40.8823 48.836L57.1063 37.748C57.2343 37.684 57.3943 37.604 57.5863 37.508C57.7783 37.412 57.9383 37.364 58.0663 37.364C58.3223 37.364 58.5463 37.46 58.7383 37.652C58.9303 37.812 59.0263 38.036 59.0263 38.324V41.972C59.0263 42.42 58.9143 42.772 58.6903 43.028C58.4663 43.284 58.1783 43.508 57.8263 43.7L46.1623 51.524L57.8263 59.396C58.1783 59.62 58.4663 59.86 58.6903 60.116C58.9143 60.34 59.0263 60.676 59.0263 61.124V64.772C59.0263 65.06 58.9303 65.3 58.7383 65.492C58.5463 65.652 58.3223 65.732 58.0663 65.732Z" fill="#D7D7D7"/>
</svg>
