<svg width="100" height="100" viewBox="0 0 100 100" fill="none" xmlns="http://www.w3.org/2000/svg">
<g clip-path="url(#clip0_200_331)">
<path d="M85 2.5H15C8.09644 2.5 2.5 8.09644 2.5 15V85C2.5 91.9036 8.09644 97.5 15 97.5H85C91.9036 97.5 97.5 91.9036 97.5 85V15C97.5 8.09644 91.9036 2.5 85 2.5Z" fill="white"/>
<path d="M85 2.5H15C8.09644 2.5 2.5 8.09644 2.5 15V85C2.5 91.9036 8.09644 97.5 15 97.5H85C91.9036 97.5 97.5 91.9036 97.5 85V15C97.5 8.09644 91.9036 2.5 85 2.5Z" stroke="#15151A" stroke-width="5"/>
<path d="M75 35C80.5228 35 85 30.5228 85 25C85 19.4772 80.5228 15 75 15C69.4772 15 65 19.4772 65 25C65 30.5228 69.4772 35 75 35Z" fill="#F14646"/>
<path d="M50 35C55.5228 35 60 30.5228 60 25C60 19.4772 55.5228 15 50 15C44.4772 15 40 19.4772 40 25C40 30.5228 44.4772 35 50 35Z" fill="#F14646"/>
<path d="M50 85C55.5228 85 60 80.5228 60 75C60 69.4772 55.5228 65 50 65C44.4772 65 40 69.4772 40 75C40 80.5228 44.4772 85 50 85Z" fill="#F14646"/>
<path d="M25 35C30.5228 35 35 30.5228 35 25C35 19.4772 30.5228 15 25 15C19.4772 15 15 19.4772 15 25C15 30.5228 19.4772 35 25 35Z" fill="#F14646"/>
<path d="M25 85C30.5228 85 35 80.5228 35 75C35 69.4772 30.5228 65 25 65C19.4772 65 15 69.4772 15 75C15 80.5228 19.4772 85 25 85Z" fill="#F14646"/>
<path d="M75 85C80.5228 85 85 80.5228 85 75C85 69.4772 80.5228 65 75 65C69.4772 65 65 69.4772 65 75C65 80.5228 69.4772 85 75 85Z" fill="#F14646"/>
<path d="M18.4211 58.8421C23.0719 58.8421 26.8421 55.0719 26.8421 50.4211C26.8421 45.7702 23.0719 42 18.4211 42C13.7702 42 10 45.7702 10 50.4211C10 55.0719 13.7702 58.8421 18.4211 58.8421Z" fill="#F14646"/>
<path d="M39.4718 58.8421C44.1227 58.8421 47.8929 55.0719 47.8929 50.4211C47.8929 45.7702 44.1227 42 39.4718 42C34.821 42 31.0508 45.7702 31.0508 50.4211C31.0508 55.0719 34.821 58.8421 39.4718 58.8421Z" fill="#F14646"/>
<path d="M60.5265 58.8421C65.1773 58.8421 68.9476 55.0719 68.9476 50.4211C68.9476 45.7702 65.1773 42 60.5265 42C55.8757 42 52.1055 45.7702 52.1055 50.4211C52.1055 55.0719 55.8757 58.8421 60.5265 58.8421Z" fill="#F14646"/>
<path d="M81.5773 58.8421C86.2281 58.8421 89.9984 55.0719 89.9984 50.4211C89.9984 45.7702 86.2281 42 81.5773 42C76.9265 42 73.1562 45.7702 73.1562 50.4211C73.1562 55.0719 76.9265 58.8421 81.5773 58.8421Z" fill="#F14646"/>
</g>
<defs>
<clipPath id="clip0_200_331">
<rect width="100" height="100" fill="white"/>
</clipPath>
</defs>
</svg>
