<svg width="100" height="100" viewBox="0 0 100 100" fill="none" xmlns="http://www.w3.org/2000/svg">
<g clip-path="url(#clip0_200_365)">
<path d="M85 2.5H15C8.09644 2.5 2.5 8.09644 2.5 15V85C2.5 91.9036 8.09644 97.5 15 97.5H85C91.9036 97.5 97.5 91.9036 97.5 85V15C97.5 8.09644 91.9036 2.5 85 2.5Z" fill="white"/>
<path d="M85 2.5H15C8.09644 2.5 2.5 8.09644 2.5 15V85C2.5 91.9036 8.09644 97.5 15 97.5H85C91.9036 97.5 97.5 91.9036 97.5 85V15C97.5 8.09644 91.9036 2.5 85 2.5Z" stroke="#15151A" stroke-width="5"/>
<path d="M75 35C80.5228 35 85 30.5228 85 25C85 19.4772 80.5228 15 75 15C69.4772 15 65 19.4772 65 25C65 30.5228 69.4772 35 75 35Z" fill="#F14646"/>
<path d="M25 60C30.5228 60 35 55.5228 35 50C35 44.4772 30.5228 40 25 40C19.4772 40 15 44.4772 15 50C15 55.5228 19.4772 60 25 60Z" fill="#F14646"/>
<path d="M50 35C55.5228 35 60 30.5228 60 25C60 19.4772 55.5228 15 50 15C44.4772 15 40 19.4772 40 25C40 30.5228 44.4772 35 50 35Z" fill="#F14646"/>
<path d="M50 85C55.5228 85 60 80.5228 60 75C60 69.4772 55.5228 65 50 65C44.4772 65 40 69.4772 40 75C40 80.5228 44.4772 85 50 85Z" fill="#F14646"/>
<path d="M50 60C55.5228 60 60 55.5228 60 50C60 44.4772 55.5228 40 50 40C44.4772 40 40 44.4772 40 50C40 55.5228 44.4772 60 50 60Z" fill="#F14646"/>
<path d="M75 60C80.5228 60 85 55.5228 85 50C85 44.4772 80.5228 40 75 40C69.4772 40 65 44.4772 65 50C65 55.5228 69.4772 60 75 60Z" fill="#F14646"/>
<path d="M25 35C30.5228 35 35 30.5228 35 25C35 19.4772 30.5228 15 25 15C19.4772 15 15 19.4772 15 25C15 30.5228 19.4772 35 25 35Z" fill="#F14646"/>
<path d="M25 85C30.5228 85 35 80.5228 35 75C35 69.4772 30.5228 65 25 65C19.4772 65 15 69.4772 15 75C15 80.5228 19.4772 85 25 85Z" fill="#F14646"/>
<path d="M75 85C80.5228 85 85 80.5228 85 75C85 69.4772 80.5228 65 75 65C69.4772 65 65 69.4772 65 75C65 80.5228 69.4772 85 75 85Z" fill="#F14646"/>
</g>
<defs>
<clipPath id="clip0_200_365">
<rect width="100" height="100" fill="white"/>
</clipPath>
</defs>
</svg>
