<svg width="100" height="100" viewBox="0 0 100 100" fill="none" xmlns="http://www.w3.org/2000/svg">
<rect x="2.5" y="2.5" width="95" height="95" rx="12.5" fill="#FCF8F0"/>
<rect x="2.5" y="2.5" width="95" height="95" rx="12.5" stroke="#D7D7D7" stroke-width="5"/>
<path d="M48.6018 64.916C48.2818 64.916 48.0098 64.804 47.7858 64.58C47.5618 64.356 47.4498 64.084 47.4498 63.764V54.404H38.2338C37.9138 54.404 37.6418 54.292 37.4178 54.068C37.1938 53.844 37.0818 53.572 37.0818 53.252V50.708C37.0818 50.356 37.1938 50.084 37.4178 49.892C37.6418 49.668 37.9138 49.556 38.2338 49.556H47.4498V40.436C47.4498 40.116 47.5618 39.844 47.7858 39.62C48.0098 39.396 48.2818 39.284 48.6018 39.284H51.3858C51.7378 39.284 52.0098 39.396 52.2018 39.62C52.4258 39.844 52.5378 40.116 52.5378 40.436V49.556H61.7538C62.0738 49.556 62.3458 49.668 62.5698 49.892C62.7938 50.084 62.9058 50.356 62.9058 50.708V53.252C62.9058 53.572 62.7938 53.844 62.5698 54.068C62.3458 54.292 62.0738 54.404 61.7538 54.404H52.5378V63.764C52.5378 64.084 52.4258 64.356 52.2018 64.58C52.0098 64.804 51.7378 64.916 51.3858 64.916H48.6018Z" fill="#D7D7D7"/>
</svg>
