<svg width="100" height="100" viewBox="0 0 100 100" fill="none" xmlns="http://www.w3.org/2000/svg">
<rect x="2.5" y="2.5" width="95" height="95" rx="12.5" fill="#C97D36"/>
<rect x="2.5" y="2.5" width="95" height="95" rx="12.5" fill="#FFBE5E"/>
<rect x="2.5" y="2.5" width="95" height="95" rx="12.5" stroke="white" stroke-width="5"/>
<path d="M39.4499 62.5C39.1859 62.5 38.9699 62.416 38.8019 62.248C38.6579 62.08 38.5859 61.876 38.5859 61.636V42.988L33.1139 47.2C32.8979 47.344 32.6819 47.404 32.4659 47.38C32.2499 47.332 32.0579 47.2 31.8899 46.984L30.3779 45.04C30.2339 44.824 30.1739 44.596 30.1979 44.356C30.2459 44.116 30.3779 43.924 30.5939 43.78L38.6579 37.552C38.8019 37.432 38.9459 37.36 39.0899 37.336C39.2339 37.312 39.3899 37.3 39.5579 37.3H42.7259C42.9659 37.3 43.1699 37.384 43.3379 37.552C43.5059 37.72 43.5899 37.924 43.5899 38.164V61.636C43.5899 61.876 43.5059 62.08 43.3379 62.248C43.1699 62.416 42.9659 62.5 42.7259 62.5H39.4499ZM58.67 62.86C56.966 62.86 55.514 62.608 54.314 62.104C53.114 61.6 52.13 60.904 51.362 60.016C50.594 59.128 50.018 58.108 49.634 56.956C49.25 55.78 49.022 54.532 48.95 53.212C48.926 52.564 48.902 51.856 48.878 51.088C48.878 50.296 48.878 49.504 48.878 48.712C48.902 47.92 48.926 47.188 48.95 46.516C48.998 45.196 49.226 43.96 49.634 42.808C50.042 41.632 50.63 40.612 51.398 39.748C52.19 38.884 53.186 38.2 54.386 37.696C55.586 37.192 57.014 36.94 58.67 36.94C60.35 36.94 61.79 37.192 62.99 37.696C64.19 38.2 65.174 38.884 65.942 39.748C66.734 40.612 67.322 41.632 67.706 42.808C68.114 43.96 68.342 45.196 68.39 46.516C68.438 47.188 68.462 47.92 68.462 48.712C68.462 49.504 68.462 50.296 68.462 51.088C68.462 51.856 68.438 52.564 68.39 53.212C68.342 54.532 68.126 55.78 67.742 56.956C67.358 58.108 66.782 59.128 66.014 60.016C65.246 60.904 64.25 61.6 63.026 62.104C61.826 62.608 60.374 62.86 58.67 62.86ZM58.67 58.72C60.23 58.72 61.37 58.216 62.09 57.208C62.834 56.176 63.218 54.784 63.242 53.032C63.29 52.336 63.314 51.64 63.314 50.944C63.314 50.224 63.314 49.504 63.314 48.784C63.314 48.064 63.29 47.38 63.242 46.732C63.218 45.028 62.834 43.66 62.09 42.628C61.37 41.572 60.23 41.044 58.67 41.044C57.134 41.044 55.994 41.572 55.25 42.628C54.53 43.66 54.146 45.028 54.098 46.732C54.098 47.38 54.086 48.064 54.062 48.784C54.062 49.504 54.062 50.224 54.062 50.944C54.086 51.64 54.098 52.336 54.098 53.032C54.146 54.784 54.542 56.176 55.286 57.208C56.03 58.216 57.158 58.72 58.67 58.72Z" fill="#FDFFFF"/>
</svg>
