<svg width="100" height="100" viewBox="0 0 100 100" fill="none" xmlns="http://www.w3.org/2000/svg">
<rect x="2.5" y="2.5" width="95" height="95" rx="12.5" fill="#C97D36"/>
<rect x="2.5" y="2.5" width="95" height="95" rx="12.5" fill="#FF9BBF"/>
<rect x="2.5" y="2.5" width="95" height="95" rx="12.5" stroke="white" stroke-width="5"/>
<path d="M45.5146 62.5C45.2986 62.5 45.1186 62.428 44.9746 62.284C44.8306 62.116 44.7586 61.924 44.7586 61.708C44.7586 61.588 44.7706 61.492 44.7946 61.42C44.8426 61.348 44.8786 61.288 44.9026 61.24L50.1946 53.932C49.7146 54.052 49.2106 54.1 48.6826 54.076C47.4826 54.052 46.3546 53.824 45.2986 53.392C44.2666 52.936 43.3546 52.336 42.5626 51.592C41.7946 50.824 41.1826 49.948 40.7266 48.964C40.2946 47.956 40.0786 46.864 40.0786 45.688C40.0786 44.608 40.2826 43.552 40.6906 42.52C41.0986 41.464 41.6986 40.516 42.4906 39.676C43.3066 38.836 44.3146 38.176 45.5146 37.696C46.7386 37.192 48.1666 36.94 49.7986 36.94C51.4066 36.94 52.8226 37.168 54.0466 37.624C55.2706 38.08 56.2906 38.716 57.1066 39.532C57.9466 40.324 58.5706 41.236 58.9786 42.268C59.4106 43.3 59.6266 44.392 59.6266 45.544C59.6266 46.576 59.4586 47.536 59.1226 48.424C58.7866 49.312 58.3666 50.128 57.8626 50.872C57.3826 51.592 56.9026 52.3 56.4226 52.996L50.0866 61.78C49.9906 61.9 49.8466 62.056 49.6546 62.248C49.4866 62.416 49.2226 62.5 48.8626 62.5H45.5146ZM49.8346 50.26C50.6986 50.26 51.4786 50.08 52.1746 49.72C52.8946 49.336 53.4586 48.808 53.8666 48.136C54.2986 47.44 54.5146 46.624 54.5146 45.688C54.5146 44.728 54.2986 43.912 53.8666 43.24C53.4586 42.544 52.8946 42.016 52.1746 41.656C51.4546 41.272 50.6746 41.08 49.8346 41.08C48.9706 41.08 48.1786 41.272 47.4586 41.656C46.7626 42.016 46.1986 42.544 45.7666 43.24C45.3586 43.912 45.1546 44.728 45.1546 45.688C45.1546 46.624 45.3586 47.44 45.7666 48.136C46.1986 48.808 46.7626 49.336 47.4586 49.72C48.1786 50.08 48.9706 50.26 49.8346 50.26Z" fill="#FDFFFF"/>
</svg>
