<svg width="100" height="100" viewBox="0 0 100 100" fill="none" xmlns="http://www.w3.org/2000/svg">
<rect x="2.5" y="2.5" width="95" height="95" rx="12.5" fill="#42FF60"/>
<rect x="2.5" y="2.5" width="95" height="95" rx="12.5" stroke="white" stroke-width="5"/>
<path d="M50.1988 62.86C48.1348 62.86 46.3588 62.476 44.8708 61.708C43.3828 60.916 42.2308 59.86 41.4148 58.54C40.5988 57.196 40.1908 55.696 40.1908 54.04C40.1908 53.296 40.2868 52.576 40.4788 51.88C40.6708 51.184 40.9228 50.524 41.2348 49.9C41.5468 49.276 41.8468 48.724 42.1348 48.244C42.4468 47.74 42.7228 47.344 42.9628 47.056L49.5508 38.02C49.6468 37.9 49.7908 37.756 49.9828 37.588C50.1748 37.396 50.4388 37.3 50.7748 37.3H54.1228C54.3388 37.3 54.5188 37.384 54.6628 37.552C54.8068 37.696 54.8788 37.876 54.8788 38.092C54.8788 38.188 54.8548 38.284 54.8068 38.38C54.7828 38.452 54.7468 38.512 54.6988 38.56L49.6588 45.544C49.8748 45.472 50.1268 45.424 50.4148 45.4C50.7028 45.376 50.9668 45.364 51.2068 45.364C52.4068 45.388 53.5468 45.628 54.6268 46.084C55.7068 46.516 56.6548 47.116 57.4708 47.884C58.2868 48.652 58.9228 49.552 59.3788 50.584C59.8588 51.616 60.0988 52.744 60.0988 53.968C60.0988 55.552 59.7028 57.028 58.9108 58.396C58.1188 59.74 56.9788 60.82 55.4908 61.636C54.0268 62.452 52.2628 62.86 50.1988 62.86ZM50.1628 58.72C51.0268 58.72 51.8188 58.54 52.5388 58.18C53.2828 57.82 53.8828 57.292 54.3388 56.596C54.7948 55.9 55.0228 55.036 55.0228 54.004C55.0228 52.996 54.7948 52.144 54.3388 51.448C53.8828 50.752 53.2828 50.224 52.5388 49.864C51.8188 49.504 51.0268 49.324 50.1628 49.324C49.2988 49.324 48.4948 49.504 47.7508 49.864C47.0308 50.224 46.4428 50.752 45.9868 51.448C45.5308 52.144 45.3028 52.996 45.3028 54.004C45.3028 55.036 45.5308 55.9 45.9868 56.596C46.4428 57.292 47.0308 57.82 47.7508 58.18C48.4948 58.54 49.2988 58.72 50.1628 58.72Z" fill="#FDFFFF"/>
</svg>
