<svg width="100" height="100" viewBox="0 0 100 100" fill="none" xmlns="http://www.w3.org/2000/svg">
<rect x="2.5" y="2.5" width="95" height="95" rx="12.5" fill="#C97D36"/>
<rect x="2.5" y="2.5" width="95" height="95" rx="12.5" fill="#D55EFF"/>
<rect x="2.5" y="2.5" width="95" height="95" rx="12.5" stroke="white" stroke-width="5"/>
<path d="M45.4466 62.5C45.2306 62.5 45.0506 62.428 44.9066 62.284C44.7626 62.116 44.6906 61.924 44.6906 61.708C44.6906 61.612 44.7146 61.504 44.7626 61.384L53.4386 41.584H42.1346C41.8706 41.584 41.6546 41.5 41.4866 41.332C41.3426 41.164 41.2706 40.96 41.2706 40.72V38.2C41.2706 37.936 41.3426 37.72 41.4866 37.552C41.6546 37.384 41.8706 37.3 42.1346 37.3H57.9386C58.2026 37.3 58.4066 37.384 58.5506 37.552C58.7186 37.72 58.8026 37.936 58.8026 38.2V40.432C58.8026 40.768 58.7666 41.056 58.6946 41.296C58.6466 41.512 58.5746 41.74 58.4786 41.98L49.8746 61.636C49.8026 61.804 49.6706 61.996 49.4786 62.212C49.3106 62.404 49.0586 62.5 48.7226 62.5H45.4466Z" fill="#FDFFFF"/>
</svg>
