<svg width="100" height="100" viewBox="0 0 100 100" fill="none" xmlns="http://www.w3.org/2000/svg">
<rect x="2.5" y="2.5" width="95" height="95" rx="12.5" fill="#7AC7FF"/>
<rect x="2.5" y="2.5" width="95" height="95" rx="12.5" stroke="white" stroke-width="5"/>
<path d="M49.8539 62.896C47.7899 62.896 46.0499 62.56 44.6339 61.888C43.2179 61.192 42.1379 60.292 41.3939 59.188C40.6739 58.084 40.2899 56.908 40.2419 55.66C40.2179 55.444 40.2779 55.276 40.4219 55.156C40.5899 55.012 40.7819 54.94 40.9979 54.94H44.3459C44.6099 54.94 44.8259 55 44.9939 55.12C45.1859 55.216 45.3299 55.396 45.4259 55.66C45.6659 56.38 46.0019 56.968 46.4339 57.424C46.8899 57.88 47.4059 58.216 47.9819 58.432C48.5819 58.648 49.2059 58.756 49.8539 58.756C50.7179 58.756 51.4979 58.588 52.1939 58.252C52.9139 57.892 53.4899 57.364 53.9219 56.668C54.3539 55.972 54.5699 55.12 54.5699 54.112C54.5699 53.224 54.3659 52.456 53.9579 51.808C53.5499 51.16 52.9859 50.656 52.2659 50.296C51.5699 49.912 50.7659 49.72 49.8539 49.72C49.1819 49.72 48.6299 49.804 48.1979 49.972C47.7659 50.14 47.3939 50.332 47.0819 50.548C46.7939 50.764 46.5299 50.956 46.2899 51.124C46.0739 51.292 45.8219 51.376 45.5339 51.376H42.2219C42.0059 51.376 41.8139 51.304 41.6459 51.16C41.5019 50.992 41.4299 50.8 41.4299 50.584L42.6899 38.272C42.7139 37.96 42.8219 37.72 43.0139 37.552C43.2059 37.384 43.4339 37.3 43.6979 37.3H57.2339C57.4739 37.3 57.6779 37.384 57.8459 37.552C58.0139 37.72 58.0979 37.924 58.0979 38.164V40.576C58.0979 40.816 58.0139 41.02 57.8459 41.188C57.6779 41.356 57.4739 41.44 57.2339 41.44H46.8299L46.2539 47.308C46.6859 47.02 47.2619 46.744 47.9819 46.48C48.7019 46.216 49.6979 46.084 50.9699 46.084C52.1219 46.084 53.2139 46.276 54.2459 46.66C55.3019 47.02 56.2379 47.56 57.0539 48.28C57.8699 48.976 58.5059 49.828 58.9619 50.836C59.4419 51.82 59.6819 52.948 59.6819 54.22C59.6819 55.972 59.2739 57.496 58.4579 58.792C57.6419 60.088 56.5019 61.096 55.0379 61.816C53.5739 62.536 51.8459 62.896 49.8539 62.896Z" fill="#FDFFFF"/>
</svg>
