<svg width="100" height="100" viewBox="0 0 100 100" fill="none" xmlns="http://www.w3.org/2000/svg">
<rect x="2.5" y="2.5" width="95" height="95" rx="12.5" fill="#C97D36"/>
<rect x="2.5" y="2.5" width="95" height="95" rx="12.5" fill="#C97D36"/>
<rect x="2.5" y="2.5" width="95" height="95" rx="12.5" stroke="white" stroke-width="5"/>
<path d="M49.9955 62.86C48.4115 62.86 46.9955 62.668 45.7475 62.284C44.4995 61.9 43.4435 61.36 42.5795 60.664C41.7395 59.968 41.0915 59.152 40.6355 58.216C40.2035 57.28 39.9875 56.236 39.9875 55.084C39.9875 53.692 40.3235 52.492 40.9955 51.484C41.6915 50.452 42.5915 49.66 43.6955 49.108C42.8075 48.556 42.1115 47.848 41.6075 46.984C41.1275 46.12 40.8875 45.112 40.8875 43.96C40.8875 42.568 41.2355 41.356 41.9315 40.324C42.6515 39.268 43.6835 38.44 45.0275 37.84C46.3955 37.24 48.0515 36.94 49.9955 36.94C51.9395 36.94 53.5835 37.24 54.9275 37.84C56.2715 38.416 57.2915 39.232 57.9875 40.288C58.6835 41.32 59.0315 42.532 59.0315 43.924C59.0315 45.076 58.7915 46.084 58.3115 46.948C57.8315 47.812 57.1595 48.532 56.2955 49.108C57.4235 49.636 58.3235 50.428 58.9955 51.484C59.6675 52.516 60.0035 53.728 60.0035 55.12C60.0035 56.632 59.6075 57.976 58.8155 59.152C58.0475 60.304 56.9075 61.216 55.3955 61.888C53.9075 62.536 52.1075 62.86 49.9955 62.86ZM49.9955 59.116C50.9315 59.116 51.7715 58.96 52.5155 58.648C53.2835 58.312 53.8835 57.844 54.3155 57.244C54.7715 56.644 54.9995 55.936 54.9995 55.12C54.9995 54.28 54.7715 53.572 54.3155 52.996C53.8835 52.396 53.2835 51.94 52.5155 51.628C51.7715 51.292 50.9315 51.124 49.9955 51.124C49.0595 51.124 48.2075 51.292 47.4395 51.628C46.6955 51.94 46.0955 52.396 45.6395 52.996C45.2075 53.572 44.9915 54.28 44.9915 55.12C44.9915 55.936 45.2075 56.644 45.6395 57.244C46.0955 57.844 46.6955 58.312 47.4395 58.648C48.2075 58.96 49.0595 59.116 49.9955 59.116ZM49.9955 47.56C50.7875 47.536 51.5075 47.38 52.1555 47.092C52.8275 46.804 53.3555 46.42 53.7395 45.94C54.1475 45.436 54.3515 44.836 54.3515 44.14C54.3515 43.444 54.1595 42.844 53.7755 42.34C53.4155 41.812 52.8995 41.404 52.2275 41.116C51.5795 40.828 50.8355 40.684 49.9955 40.684C49.1555 40.684 48.3995 40.828 47.7275 41.116C47.0795 41.404 46.5635 41.812 46.1795 42.34C45.8195 42.844 45.6395 43.444 45.6395 44.14C45.6395 44.836 45.8195 45.436 46.1795 45.94C46.5635 46.444 47.0795 46.84 47.7275 47.128C48.3995 47.416 49.1555 47.56 49.9955 47.56Z" fill="#FDFFFF"/>
</svg>
