<svg width="100" height="100" viewBox="0 0 100 100" fill="none" xmlns="http://www.w3.org/2000/svg">
<rect x="2.5" y="2.5" width="95" height="95" rx="12.5" fill="#FFEE57"/>
<rect x="2.5" y="2.5" width="95" height="95" rx="12.5" stroke="white" stroke-width="5"/>
<path d="M52.4778 62.5C52.2378 62.5 52.0338 62.416 51.8658 62.248C51.6978 62.08 51.6138 61.876 51.6138 61.636V57.028H40.2018C39.9378 57.028 39.7218 56.944 39.5538 56.776C39.4098 56.608 39.3378 56.404 39.3378 56.164V53.716C39.3378 53.572 39.3618 53.404 39.4098 53.212C39.4818 52.996 39.5898 52.804 39.7338 52.636L50.3538 37.912C50.6658 37.504 51.1098 37.3 51.6858 37.3H55.6098C55.8498 37.3 56.0538 37.384 56.2218 37.552C56.3898 37.72 56.4738 37.924 56.4738 38.164V52.78H59.6778C59.9658 52.78 60.1818 52.864 60.3258 53.032C60.4938 53.176 60.5778 53.38 60.5778 53.644V56.164C60.5778 56.404 60.4938 56.608 60.3258 56.776C60.1578 56.944 59.9538 57.028 59.7138 57.028H56.4738V61.636C56.4738 61.876 56.3898 62.08 56.2218 62.248C56.0538 62.416 55.8498 62.5 55.6098 62.5H52.4778ZM44.3418 52.924H51.7218V42.52L44.3418 52.924Z" fill="#FDFFFF"/>
</svg>
