<svg width="100" height="100" viewBox="0 0 100 100" fill="none" xmlns="http://www.w3.org/2000/svg">
<rect x="2.5" y="2.5" width="95" height="95" rx="12.5" fill="#15151A"/>
<rect x="2.5" y="2.5" width="95" height="95" rx="12.5" stroke="white" stroke-width="5"/>
<path d="M41.3395 62.5C41.0995 62.5 40.8955 62.416 40.7275 62.248C40.5595 62.08 40.4755 61.876 40.4755 61.636V59.8C40.4755 59.584 40.5235 59.332 40.6195 59.044C40.7395 58.732 40.9915 58.42 41.3755 58.108L47.0635 52.456C48.6475 51.208 49.9195 50.152 50.8795 49.288C51.8635 48.4 52.5715 47.596 53.0035 46.876C53.4595 46.132 53.6875 45.4 53.6875 44.68C53.6875 43.6 53.3875 42.724 52.7875 42.052C52.2115 41.38 51.2875 41.044 50.0155 41.044C49.1755 41.044 48.4675 41.224 47.8915 41.584C47.3155 41.92 46.8595 42.376 46.5235 42.952C46.2115 43.528 45.9955 44.164 45.8755 44.86C45.8275 45.172 45.6955 45.388 45.4795 45.508C45.2635 45.628 45.0475 45.688 44.8315 45.688H41.6275C41.4115 45.688 41.2315 45.616 41.0875 45.472C40.9435 45.328 40.8715 45.16 40.8715 44.968C40.8955 43.936 41.1115 42.94 41.5195 41.98C41.9275 40.996 42.5155 40.132 43.2835 39.388C44.0755 38.62 45.0355 38.008 46.1635 37.552C47.2915 37.096 48.5635 36.868 49.9795 36.868C51.9715 36.868 53.6155 37.204 54.9115 37.876C56.2315 38.548 57.2155 39.46 57.8635 40.612C58.5355 41.764 58.8715 43.06 58.8715 44.5C58.8715 45.628 58.6555 46.672 58.2235 47.632C57.7915 48.568 57.1675 49.48 56.3515 50.368C55.5355 51.232 54.5515 52.12 53.3995 53.032L48.2875 58.216H58.5475C58.8115 58.216 59.0155 58.3 59.1595 58.468C59.3275 58.612 59.4115 58.816 59.4115 59.08V61.636C59.4115 61.876 59.3275 62.08 59.1595 62.248C59.0155 62.416 58.8115 62.5 58.5475 62.5H41.3395Z" fill="#FDFFFF"/>
</svg>
