<svg width="100" height="100" viewBox="0 0 100 100" fill="none" xmlns="http://www.w3.org/2000/svg">
<rect x="2.5" y="2.5" width="95" height="95" rx="12.5" fill="#F14646"/>
<rect x="2.5" y="2.5" width="95" height="95" rx="12.5" stroke="white" stroke-width="5"/>
<path d="M49.8581 62.86C48.1781 62.86 46.7261 62.656 45.5021 62.248C44.2781 61.84 43.2581 61.312 42.4421 60.664C41.6501 59.992 41.0501 59.272 40.6421 58.504C40.2341 57.712 40.0181 56.932 39.9941 56.164C39.9941 55.948 40.0661 55.78 40.2101 55.66C40.3781 55.516 40.5701 55.444 40.7861 55.444H44.0261C44.2661 55.444 44.4701 55.492 44.6381 55.588C44.8061 55.684 44.9501 55.876 45.0701 56.164C45.2861 56.812 45.6341 57.328 46.1141 57.712C46.6181 58.096 47.1941 58.372 47.8421 58.54C48.4901 58.684 49.1741 58.756 49.8941 58.756C51.3341 58.756 52.4741 58.42 53.3141 57.748C54.1781 57.052 54.6101 56.068 54.6101 54.796C54.6101 53.524 54.2141 52.612 53.4221 52.06C52.6301 51.484 51.5261 51.196 50.1101 51.196H46.4021C46.1381 51.196 45.9221 51.124 45.7541 50.98C45.5861 50.812 45.5021 50.596 45.5021 50.332V48.82C45.5021 48.58 45.5501 48.376 45.6461 48.208C45.7661 48.016 45.8861 47.86 46.0061 47.74L52.4501 41.44H42.1541C41.8901 41.44 41.6741 41.356 41.5061 41.188C41.3621 41.02 41.2901 40.816 41.2901 40.576V38.2C41.2901 37.936 41.3621 37.72 41.5061 37.552C41.6741 37.384 41.8901 37.3 42.1541 37.3H57.5981C57.8621 37.3 58.0781 37.384 58.2461 37.552C58.4141 37.72 58.4981 37.936 58.4981 38.2V40.36C58.4981 40.576 58.4501 40.768 58.3541 40.936C58.2581 41.104 58.1501 41.248 58.0301 41.368L51.8021 47.776L52.2341 47.812C53.6981 47.932 54.9941 48.268 56.1221 48.82C57.2741 49.348 58.1621 50.128 58.7861 51.16C59.4341 52.192 59.7581 53.488 59.7581 55.048C59.7581 56.68 59.3261 58.084 58.4621 59.26C57.6221 60.412 56.4581 61.3 54.9701 61.924C53.4821 62.548 51.7781 62.86 49.8581 62.86Z" fill="#FDFFFF"/>
</svg>
