<svg width="100" height="100" viewBox="0 0 100 100" fill="none" xmlns="http://www.w3.org/2000/svg">
<rect x="2.5" y="2.5" width="95" height="95" rx="12.5" fill="white"/>
<rect x="2.5" y="2.5" width="95" height="95" rx="12.5" stroke="#D7D7D7" stroke-width="5"/>
<path d="M51.64 62.5C51.376 62.5 51.16 62.416 50.992 62.248C50.848 62.08 50.776 61.876 50.776 61.636V42.988L45.304 47.2C45.088 47.344 44.872 47.404 44.656 47.38C44.44 47.332 44.248 47.2 44.08 46.984L42.568 45.04C42.424 44.824 42.364 44.596 42.388 44.356C42.436 44.116 42.568 43.924 42.784 43.78L50.848 37.552C50.992 37.432 51.136 37.36 51.28 37.336C51.424 37.312 51.58 37.3 51.748 37.3H54.916C55.156 37.3 55.36 37.384 55.528 37.552C55.696 37.72 55.78 37.924 55.78 38.164V61.636C55.78 61.876 55.696 62.08 55.528 62.248C55.36 62.416 55.156 62.5 54.916 62.5H51.64Z" fill="#D7D7D7"/>
</svg>
