<svg width="100" height="100" viewBox="0 0 100 100" fill="none" xmlns="http://www.w3.org/2000/svg">
<rect x="2.5" y="2.5" width="95" height="95" rx="12.5" fill="#FCF8F0"/>
<rect x="2.5" y="2.5" width="95" height="95" rx="12.5" stroke="#D7D7D7" stroke-width="5"/>
<path d="M38.5651 64.5C38.2771 64.5 38.0211 64.404 37.7971 64.212C37.6051 63.988 37.5091 63.732 37.5091 63.444C37.5091 63.348 37.5251 63.236 37.5571 63.108C37.6211 62.98 37.7171 62.82 37.8451 62.628L46.0051 51.684L38.4211 41.412C38.3251 41.252 38.2451 41.108 38.1811 40.98C38.1491 40.852 38.1331 40.724 38.1331 40.596C38.1331 40.308 38.2291 40.068 38.4211 39.876C38.6451 39.652 38.9011 39.54 39.1891 39.54H43.3651C43.7491 39.54 44.0371 39.636 44.2291 39.828C44.4211 40.02 44.5651 40.196 44.6611 40.356L50.0851 47.556L55.5091 40.356C55.6371 40.196 55.7811 40.02 55.9411 39.828C56.1331 39.636 56.4211 39.54 56.8051 39.54H60.7891C61.0771 39.54 61.3171 39.652 61.5091 39.876C61.7331 40.068 61.8451 40.292 61.8451 40.548C61.8451 40.708 61.8131 40.852 61.7491 40.98C61.7171 41.108 61.6531 41.252 61.5571 41.412L53.8771 51.78L62.0851 62.628C62.2131 62.82 62.2931 62.98 62.3251 63.108C62.3891 63.236 62.4211 63.348 62.4211 63.444C62.4211 63.732 62.3091 63.988 62.0851 64.212C61.8931 64.404 61.6531 64.5 61.3651 64.5H56.9971C56.6451 64.5 56.3731 64.42 56.1811 64.26C55.9891 64.068 55.8291 63.892 55.7011 63.732L49.9411 56.1L44.0851 63.732C43.9571 63.892 43.7971 64.068 43.6051 64.26C43.4451 64.42 43.1731 64.5 42.7891 64.5H38.5651Z" fill="#D7D7D7"/>
</svg>
