<svg width="50" height="500" viewBox="0 0 50 500" fill="none" xmlns="http://www.w3.org/2000/svg">
<g clip-path="url(#clip0_194_48)">
<path d="M40 0.5H10C4.75329 0.5 0.5 4.75329 0.5 10V490C0.5 495.247 4.75329 499.5 10 499.5H40C45.2467 499.5 49.5 495.247 49.5 490V10C49.5 4.75329 45.2467 0.5 40 0.5Z" fill="#FFBE5E"/>
<path d="M40 0.5H10C4.75329 0.5 0.5 4.75329 0.5 10V490C0.5 495.247 4.75329 499.5 10 499.5H40C45.2467 499.5 49.5 495.247 49.5 490V10C49.5 4.75329 45.2467 0.5 40 0.5Z" stroke="white"/>
<path d="M35 10.5H15C12.5147 10.5 10.5 12.5147 10.5 15V485C10.5 487.485 12.5147 489.5 15 489.5H35C37.4853 489.5 39.5 487.485 39.5 485V15C39.5 12.5147 37.4853 10.5 35 10.5Z" fill="#FFBE5E" stroke="white"/>
</g>
<defs>
<clipPath id="clip0_194_48">
<rect width="50" height="500" fill="white"/>
</clipPath>
</defs>
</svg>
