<svg width="50" height="100" viewBox="0 0 50 100" fill="none" xmlns="http://www.w3.org/2000/svg">
<g clip-path="url(#clip0_194_56)">
<path d="M40 0.5H10C4.75329 0.5 0.5 4.75329 0.5 10V90C0.5 95.2467 4.75329 99.5 10 99.5H40C45.2467 99.5 49.5 95.2467 49.5 90V10C49.5 4.75329 45.2467 0.5 40 0.5Z" fill="#15151A"/>
<path d="M40 0.5H10C4.75329 0.5 0.5 4.75329 0.5 10V90C0.5 95.2467 4.75329 99.5 10 99.5H40C45.2467 99.5 49.5 95.2467 49.5 90V10C49.5 4.75329 45.2467 0.5 40 0.5Z" stroke="white"/>
<path d="M35 10.5H15C12.5147 10.5 10.5 12.5147 10.5 15V85C10.5 87.4853 12.5147 89.5 15 89.5H35C37.4853 89.5 39.5 87.4853 39.5 85V15C39.5 12.5147 37.4853 10.5 35 10.5Z" fill="#15151A" stroke="white"/>
</g>
<defs>
<clipPath id="clip0_194_56">
<rect width="50" height="100" fill="white"/>
</clipPath>
</defs>
</svg>
