<svg width="50" height="150" viewBox="0 0 50 150" fill="none" xmlns="http://www.w3.org/2000/svg">
<g clip-path="url(#clip0_194_60)">
<path d="M40 0.5H10C4.75329 0.5 0.5 4.75329 0.5 10V140C0.5 145.247 4.75329 149.5 10 149.5H40C45.2467 149.5 49.5 145.247 49.5 140V10C49.5 4.75329 45.2467 0.5 40 0.5Z" fill="#F14646"/>
<path d="M40 0.5H10C4.75329 0.5 0.5 4.75329 0.5 10V140C0.5 145.247 4.75329 149.5 10 149.5H40C45.2467 149.5 49.5 145.247 49.5 140V10C49.5 4.75329 45.2467 0.5 40 0.5Z" stroke="white"/>
<path d="M35 10.5H15C12.5147 10.5 10.5 12.5147 10.5 15V135C10.5 137.485 12.5147 139.5 15 139.5H35C37.4853 139.5 39.5 137.485 39.5 135V15C39.5 12.5147 37.4853 10.5 35 10.5Z" fill="#F14646" stroke="white"/>
</g>
<defs>
<clipPath id="clip0_194_60">
<rect width="50" height="150" fill="white"/>
</clipPath>
</defs>
</svg>
