<svg width="50" height="200" viewBox="0 0 50 200" fill="none" xmlns="http://www.w3.org/2000/svg">
<g clip-path="url(#clip0_194_64)">
<mask id="mask0_194_64" style="mask-type:luminance" maskUnits="userSpaceOnUse" x="0" y="0" width="50" height="200">
<path d="M40 0H10C4.47715 0 0 4.47715 0 10V190C0 195.523 4.47715 200 10 200H40C45.5228 200 50 195.523 50 190V10C50 4.47715 45.5228 0 40 0Z" fill="white"/>
</mask>
<g mask="url(#mask0_194_64)">
<path d="M40 0H10C4.47715 0 0 4.47715 0 10V190C0 195.523 4.47715 200 10 200H40C45.5228 200 50 195.523 50 190V10C50 4.47715 45.5228 0 40 0Z" fill="#FFEE57"/>
<path d="M35 10.5H15C12.5147 10.5 10.5 12.5147 10.5 15V185C10.5 187.485 12.5147 189.5 15 189.5H35C37.4853 189.5 39.5 187.485 39.5 185V15C39.5 12.5147 37.4853 10.5 35 10.5Z" fill="#FFEE57" stroke="white"/>
</g>
<path d="M40 0.5H10C4.75329 0.5 0.5 4.75329 0.5 10V190C0.5 195.247 4.75329 199.5 10 199.5H40C45.2467 199.5 49.5 195.247 49.5 190V10C49.5 4.75329 45.2467 0.5 40 0.5Z" stroke="white"/>
</g>
<defs>
<clipPath id="clip0_194_64">
<rect width="50" height="200" fill="white"/>
</clipPath>
</defs>
</svg>
