<svg width="50" height="250" viewBox="0 0 50 250" fill="none" xmlns="http://www.w3.org/2000/svg">
<g clip-path="url(#clip0_194_72)">
<path d="M40 0.5H10C4.75329 0.5 0.5 4.75329 0.5 10V240C0.5 245.247 4.75329 249.5 10 249.5H40C45.2467 249.5 49.5 245.247 49.5 240V10C49.5 4.75329 45.2467 0.5 40 0.5Z" fill="#7AC7FF"/>
<path d="M40 0.5H10C4.75329 0.5 0.5 4.75329 0.5 10V240C0.5 245.247 4.75329 249.5 10 249.5H40C45.2467 249.5 49.5 245.247 49.5 240V10C49.5 4.75329 45.2467 0.5 40 0.5Z" stroke="white"/>
<path d="M39.5 235L39.5 15C39.5 12.5147 37.4853 10.5 35 10.5L15 10.5C12.5147 10.5 10.5 12.5147 10.5 15L10.5 235C10.5 237.485 12.5147 239.5 15 239.5H35C37.4853 239.5 39.5 237.485 39.5 235Z" fill="#7AC7FF" stroke="white"/>
</g>
<defs>
<clipPath id="clip0_194_72">
<rect width="50" height="250" fill="white"/>
</clipPath>
</defs>
</svg>
