<svg width="50" height="300" viewBox="0 0 50 300" fill="none" xmlns="http://www.w3.org/2000/svg">
<g clip-path="url(#clip0_194_76)">
<path d="M40 0.5H10C4.75329 0.5 0.5 4.75329 0.5 10V290C0.5 295.247 4.75329 299.5 10 299.5H40C45.2467 299.5 49.5 295.247 49.5 290V10C49.5 4.75329 45.2467 0.5 40 0.5Z" fill="#42FF60"/>
<path d="M40 0.5H10C4.75329 0.5 0.5 4.75329 0.5 10V290C0.5 295.247 4.75329 299.5 10 299.5H40C45.2467 299.5 49.5 295.247 49.5 290V10C49.5 4.75329 45.2467 0.5 40 0.5Z" stroke="white"/>
<path d="M39.5 285L39.5 15C39.5 12.5147 37.4853 10.5 35 10.5L15 10.5C12.5147 10.5 10.5 12.5147 10.5 15L10.5 285C10.5 287.485 12.5147 289.5 15 289.5H35C37.4853 289.5 39.5 287.485 39.5 285Z" fill="#42FF60" stroke="white"/>
</g>
<defs>
<clipPath id="clip0_194_76">
<rect width="50" height="300" fill="white"/>
</clipPath>
</defs>
</svg>
