<svg width="50" height="350" viewBox="0 0 50 350" fill="none" xmlns="http://www.w3.org/2000/svg">
<g clip-path="url(#clip0_194_80)">
<path d="M40 0.5H10C4.75329 0.5 0.5 4.75329 0.5 10V340C0.5 345.247 4.75329 349.5 10 349.5H40C45.2467 349.5 49.5 345.247 49.5 340V10C49.5 4.75329 45.2467 0.5 40 0.5Z" fill="#D55EFF"/>
<path d="M40 0.5H10C4.75329 0.5 0.5 4.75329 0.5 10V340C0.5 345.247 4.75329 349.5 10 349.5H40C45.2467 349.5 49.5 345.247 49.5 340V10C49.5 4.75329 45.2467 0.5 40 0.5Z" stroke="white"/>
<path d="M35 10.5H15C12.5147 10.5 10.5 12.5147 10.5 15V335C10.5 337.485 12.5147 339.5 15 339.5H35C37.4853 339.5 39.5 337.485 39.5 335V15C39.5 12.5147 37.4853 10.5 35 10.5Z" fill="#D55EFF" stroke="white"/>
</g>
<defs>
<clipPath id="clip0_194_80">
<rect width="50" height="350" fill="white"/>
</clipPath>
</defs>
</svg>
