<svg width="50" height="400" viewBox="0 0 50 400" fill="none" xmlns="http://www.w3.org/2000/svg">
<g clip-path="url(#clip0_194_84)">
<path d="M40 0.5H10C4.75329 0.5 0.5 4.75329 0.5 10V390C0.5 395.247 4.75329 399.5 10 399.5H40C45.2467 399.5 49.5 395.247 49.5 390V10C49.5 4.75329 45.2467 0.5 40 0.5Z" fill="#C97D36"/>
<path d="M40 0.5H10C4.75329 0.5 0.5 4.75329 0.5 10V390C0.5 395.247 4.75329 399.5 10 399.5H40C45.2467 399.5 49.5 395.247 49.5 390V10C49.5 4.75329 45.2467 0.5 40 0.5Z" stroke="white"/>
<path d="M35 10.5H15C12.5147 10.5 10.5 12.5147 10.5 15V385C10.5 387.485 12.5147 389.5 15 389.5H35C37.4853 389.5 39.5 387.485 39.5 385V15C39.5 12.5147 37.4853 10.5 35 10.5Z" fill="#C97D36" stroke="white"/>
</g>
<defs>
<clipPath id="clip0_194_84">
<rect width="50" height="400" fill="white"/>
</clipPath>
</defs>
</svg>
