<svg width="50" height="450" viewBox="0 0 50 450" fill="none" xmlns="http://www.w3.org/2000/svg">
<g clip-path="url(#clip0_194_88)">
<path d="M40 0.5H10C4.75329 0.5 0.5 4.75329 0.5 10V440C0.5 445.247 4.75329 449.5 10 449.5H40C45.2467 449.5 49.5 445.247 49.5 440V10C49.5 4.75329 45.2467 0.5 40 0.5Z" fill="#FF9BBF"/>
<path d="M40 0.5H10C4.75329 0.5 0.5 4.75329 0.5 10V440C0.5 445.247 4.75329 449.5 10 449.5H40C45.2467 449.5 49.5 445.247 49.5 440V10C49.5 4.75329 45.2467 0.5 40 0.5Z" stroke="white"/>
<path d="M35 10.5H15C12.5147 10.5 10.5 12.5147 10.5 15V435C10.5 437.485 12.5147 439.5 15 439.5H35C37.4853 439.5 39.5 437.485 39.5 435V15C39.5 12.5147 37.4853 10.5 35 10.5Z" fill="#FF9BBF" stroke="white"/>
</g>
<defs>
<clipPath id="clip0_194_88">
<rect width="50" height="450" fill="white"/>
</clipPath>
</defs>
</svg>
