<svg width="77" height="77" viewBox="0 0 77 77" fill="none" xmlns="http://www.w3.org/2000/svg">
<path d="M66 1H11C5.47715 1 1 5.47715 1 11V66C1 71.5228 5.47715 76 11 76H66C71.5229 76 76 71.5228 76 66V11C76 5.47715 71.5229 1 66 1Z" fill="#FCF8F0"/>
<path d="M66 1.5H11C5.75329 1.5 1.5 5.75329 1.5 11V66C1.5 71.2467 5.75329 75.5 11 75.5H66C71.2467 75.5 75.5 71.2467 75.5 66V11C75.5 5.75329 71.2467 1.5 66 1.5Z" stroke="white" stroke-width="3"/>
<path fill-rule="evenodd" clip-rule="evenodd" d="M24.99 34.0958C24.418 35.3398 24.418 36.7538 24.418 39.5828V48.4168C24.418 52.3448 24.418 54.3088 25.638 55.5298C26.755 56.6458 28.495 56.7408 31.793 56.7488V46.3328C31.793 44.0778 33.621 42.2498 35.876 42.2498H42.126C44.381 42.2498 46.21 44.0778 46.21 46.3328V56.7488C49.508 56.7408 51.247 56.6458 52.364 55.5298C53.585 54.3088 53.585 52.3448 53.585 48.4168V39.5828C53.585 36.7538 53.585 35.3398 53.013 34.0958C52.441 32.8528 51.367 31.9328 49.22 30.0918L47.136 28.3058C43.254 24.9785 41.313 23.3149 39.001 23.3149C36.689 23.3149 34.748 24.9785 30.866 28.3058L28.783 30.0918C26.635 31.9328 25.562 32.8528 24.99 34.0958ZM42.21 56.7498V46.3328C42.21 46.2868 42.172 46.2498 42.126 46.2498H35.876C35.83 46.2498 35.793 46.2868 35.793 46.3328V56.7498H42.21Z" fill="#A9A8A8"/>
</svg>
